<?xml version="1.0" encoding="UTF-8"?>
<svg width="9" height="12" viewBox="0 0 9 12" version="1.1" xmlns="http://www.w3.org/2000/svg" xmlns:xlink="http://www.w3.org/1999/xlink">
    <g id="Canvas" transform="translate(-1602 -571)">
        <g id="placeholder-filled-point">
            <g id="Shape">
                <use xlink:href="#path0_fill" transform="translate(1602 571)" fill="#2055B3"/>
            </g>
        </g>
    </g>
    <defs>
        <path id="path0_fill" fill-rule="evenodd" d="M 0 4.41797C 0 1.98193 2.01868 0 4.49976 0C 6.98096 0 8.99976 1.98193 9 4.41797C 9 5.05341 8.86768 5.66003 8.60645 6.22131C 7.48096 8.63855 5.32397 11.1903 4.6897 11.9147C 4.64221 11.9688 4.57288 12 4.49988 12C 4.427 12 4.35767 11.9688 4.31018 11.9147C 3.67566 11.1902 1.51868 8.63831 0.393555 6.22131C 0.132446 5.66003 0 5.05341 0 4.41797ZM 2.16235 4.41779C 2.16235 5.68311 3.21106 6.71265 4.49988 6.71265C 5.78882 6.71265 6.8374 5.68311 6.83728 4.41779C 6.83728 3.1524 5.7887 2.12286 4.49988 2.12286C 3.21106 2.12286 2.16235 3.1524 2.16235 4.41779Z"/>
    </defs>
</svg>