<?xml version="1.0" encoding="UTF-8"?>
<svg width="50px" height="50px" viewBox="0 0 50 50" version="1.1" xmlns="http://www.w3.org/2000/svg" xmlns:xlink="http://www.w3.org/1999/xlink">
    <defs></defs>
    <g id="Page-1" stroke="none" stroke-width="1" fill="none" fill-rule="evenodd">
        <g id="Страница-компании---Скидки-(бесплатник)-1280" transform="translate(-1194.000000, -632.000000)">
            <g id="Group-12" transform="translate(1194.000000, 632.000000)">
                <rect id="Rectangle-5" fill="#DEDEDE" x="0" y="0" width="50" height="50" rx="25"></rect>
                <g id="arrow-point-to-right" transform="translate(25.500000, 24.000000) rotate(-90.000000) translate(-25.500000, -24.000000) translate(20.500000, 15.500000)" fill-rule="nonzero" fill="#FFFFFF">
                    <path d="M9.64021361,9.34158742 L2.0971233,16.6510904 C1.61729164,17.1163032 0.839326861,17.1163032 0.359728151,16.6510904 C-0.119909384,16.1862915 -0.119909384,15.4324323 0.359728151,14.967671 L7.03419854,8.49987772 L0.359922273,2.03231016 C-0.119715261,1.56732312 -0.119715261,0.813539207 0.359922273,0.348740282 C0.839559808,-0.116246761 1.61748577,-0.116246761 2.09731742,0.348740282 L9.64040773,7.65835615 C9.8802265,7.89086848 10,8.19527904 10,8.4998401 C10,8.80455165 9.87999356,9.10918796 9.64021361,9.34158742 Z" id="Shape"></path>
                </g>
            </g>
        </g>
    </g>
</svg>