<svg width="17" height="15" viewBox="0 0 17 15" version="1.1" xmlns="http://www.w3.org/2000/svg" xmlns:xlink="http://www.w3.org/1999/xlink">
	<g id="Canvas" transform="translate(623 -757)">
		<g id="thumb-up-button">
			<g id="Shape">
				<use xlink:href="#path0_fill" transform="matrix(1 0 0 -1 -623 771.986)" fill="#0000FF"/>
			</g>
		</g>
	</g>
	<defs>
		<path id="path0_fill" fill-rule="evenodd" d="M 2.92688 14.6344L 0 14.6344L 0 5.85376L 2.92688 5.85376L 2.92688 14.6344ZM 14.6344 5.12207C 15.4393 5.12207 16.0978 5.78058 16.0978 6.58551L 16.0247 6.58545L 16.0247 8.04889C 16.0247 8.19525 16.0247 8.41473 15.9515 8.5611L 13.7563 13.7563C 13.5368 14.2686 13.0246 14.6344 12.4393 14.6344L 5.85376 14.6344C 5.04889 14.6344 4.39032 13.9758 4.39032 13.171L 4.39032 5.85376C 4.39032 5.41473 4.53668 5.04889 4.82935 4.82935L 9.65869 0L 10.4636 0.73175C 10.6099 0.951233 10.7563 1.2439 10.7563 1.53662L 10.7563 1.7561L 10.0245 5.12207L 14.6344 5.12207Z"/>
	</defs>
</svg>
