<svg width="60px" viewBox="0 0 801 221" version="1.1" xmlns="http://www.w3.org/2000/svg" xmlns:xlink="http://www.w3.org/1999/xlink">
                    <g id="Page-1" stroke="none" stroke-width="1" fill="none" fill-rule="evenodd">
                        <g id="here" fill="#FF4E00">
                            <polygon id="Rectangle" points="274 0 523 0 523 221 453.938477 221 453.938477 55 342.991211 55 342.991211 221 274 221"></polygon>
                            <path id="Rectangle" d="M731,95 L731,70 C731,70 731.122348,66.985529 730,64.5 C729.841533,64.1490628 729.686142,63.8232701 729.530743,63.5174787 C728.288587,60.929463 726.325795,58.752955 723.902407,57.2479948 C723.116155,56.7014641 722.408829,56.3633542 721.5,56 C721.250019,55.9000563 720.945218,55.8070648 720.608607,55.7212723 C719.156574,55.2529672 717.607829,55 716,55 C715.998375,55 715.99675,55.0000003 715.995126,55.0000008 C715.995119,55.0000001 715.995117,55 715.995117,55 L619.991211,55 C619.991211,55 619.991211,91.1728516 619.991211,110 C619.991211,128.827148 619.991211,221 619.991211,221 L551,221 L551,7.10542736e-15 L753,7.10542736e-15 L740,41.5 L800,49.5888672 L800,121.662109 L738.5,110.5 L753,165 L619.991211,165 L619.991211,110 L716,110 C724.284271,110 731,103.284271 731,95 Z"></path>
                            <path id="Oval" d="M800.098633,165 L800.098633,110 L776,110 C751.147186,110 731,130.147186 731,155 L731,165 L800.098633,165 Z" transform="translate(765.549316, 137.500000) scale(-1, -1) translate(-765.549316, -137.500000) "></path>
                            <path id="Oval" d="M800.098633,55 L800.098633,0 L776,0 C751.147186,0 731,20.1471863 731,45 L731,55 L800.098633,55 Z" transform="translate(765.549316, 27.500000) scale(-1, 1) translate(-765.549316, -27.500000) "></path>
                            <path id="Rectangle" d="M84.0268555,165 L165.055786,165 C172.977936,164.971057 179.452637,158.800856 179.967055,151.002125 L180,151 L180,144 L249,144 L249,166 L209,189 L200,221 L45.6225586,221 L38.5,194.5 L0,177 L0,48.8813477 L45.6225586,-3.78653235e-29 L206.858398,-3.78653235e-29 L206.858398,36.5 L249,43.5 L249,77 L180,77 L180,70 C180,61.7157288 173.284271,55 165,55 L84.4599609,55 L84.4535905,55.0067272 C84.3029377,55.0022529 84.1517319,55 84,55 C75.7157288,55 69,61.7157288 69,70 C69,70.4276214 69.0178938,70.8510634 69.0529736,71.2696182 L68.9912109,71.3348389 L68.9912109,150.02478 L69.0000368,150.033571 C69.0181504,158.302407 75.7269218,165 84,165 C84.0089458,165 84.0178898,164.999992 84.0268319,164.999977 Z"></path>
                            <path id="Oval" d="M69.0986328,55 L69.0986328,0 L45,0 C20.1471863,0 0,20.1471863 0,45 L0,55 L69.0986328,55 Z"></path>
                            <path id="Oval" d="M69.0986328,221 L69.0986328,166 L45,166 C20.1471863,166 0,186.147186 0,211 L0,221 L69.0986328,221 Z" transform="translate(34.549316, 193.500000) scale(1, -1) translate(-34.549316, -193.500000) "></path>
                            <path id="Oval" d="M249.098633,221 L249.098633,166 L225,166 C200.147186,166 180,186.147186 180,211 L180,221 L249.098633,221 Z" transform="translate(214.549316, 193.500000) scale(-1, -1) translate(-214.549316, -193.500000) "></path>
                            <path id="Oval" d="M249.098633,55 L249.098633,0 L225,0 C200.147186,0 180,20.1471863 180,45 L180,55 L249.098633,55 Z" transform="translate(214.549316, 27.500000) scale(-1, 1) translate(-214.549316, -27.500000) "></path>
                        </g>
                    </g>
                </svg>