<?xml version="1.0" encoding="UTF-8"?>
<svg width="119px" height="197px" viewBox="0 0 119 197" version="1.1" xmlns="http://www.w3.org/2000/svg" xmlns:xlink="http://www.w3.org/1999/xlink">
    <title>Group 33</title>
    <g id="Page-1" stroke="none" stroke-width="1" fill="none" fill-rule="evenodd">
        <g id="1280-2" transform="translate(-926.000000, -233.000000)">
            <g id="Group-5" transform="translate(831.000000, 202.000000)">
                <g id="Group-33" transform="translate(61.000000, 10.000000)">
                    <g id="Group-25" transform="translate(102.949397, 114.280814) rotate(-26.000000) translate(-102.949397, -114.280814) translate(33.949397, 21.780814)">
                        <path d="M15.2955194,138.838695 C26.6349249,107.625053 -4.39477082,73.7860959 35.8361414,44.1344552 C62.9552995,24.1532076 123.606535,43.5022364 112.777164,96.7874867 C104.450174,137.774556 73.5638481,128.799026 53.6098891,158.589969 L15.2955194,138.838695" id="Fill-8" fill="#F7CB5E"></path>
                        <path d="M25.8126079,144.261599 C26.2773241,142.162995 27.1111766,140.011638 27.6714728,138.040796 C29.1026999,133.009423 30.2628425,127.903864 31.7575149,122.884854 C35.0846853,111.746427 38.0979251,100.553599 42.706361,89.8446193 C45.904169,82.4244967 48.9421277,74.9606876 55.0996177,69.4850295 C58.4276121,66.5242341 58.1062658,72.4054354 57.9233456,74.1380612 C57.6275422,76.9208133 57.1982564,79.6079494 56.5308448,82.3198138 C55.7579657,85.4561798 54.6431411,88.494457 53.5744586,91.5492198 C52.7776845,93.1244091 52.2009091,94.752352 51.9800864,96.4083202 L51.967727,96.4528311 L51.9759666,96.4553039 C51.9553675,96.6003763 51.9298246,96.7421516 51.9182891,96.887224 C51.7403127,98.8539438 54.7123542,99.0229202 55.2240364,97.2705118 C55.7678533,95.4051777 56.3825311,93.5588019 56.9980329,91.7198447 C59.7245329,86.6827008 65.0358109,81.6381385 68.6711443,78.9477052 C73.0999558,75.6720368 69.5082926,86.0768588 69.0188575,87.5012058 C68.6200584,88.6708518 68.160286,89.8635776 67.6774425,91.0587762 C66.0781266,93.2744271 64.7861496,95.6631757 64.5513195,98.0337903 C64.3782869,99.7639433 66.9202188,100.195863 67.688978,98.8391069 C68.1883008,97.9538357 69.0542879,96.3671065 70.0199749,94.4036837 C70.3067147,94.0640825 70.581095,93.7104685 70.8101572,93.3164651 C72.2463281,90.8164394 73.9675909,88.6790946 75.8635342,86.5302099 C77.5312393,84.6393233 79.2368467,82.7855291 81.0932397,81.0809286 C83.694497,78.6946528 84.7623556,80.5682297 83.6862574,83.5430377 C82.7016193,86.2746847 81.7936099,88.8967032 80.4225322,91.4700894 C77.9473416,96.1181755 74.833578,100.578327 72.0131461,105.028587 C66.1275645,114.302504 60.357338,123.667915 54.670332,133.064649 C50.6469112,139.714899 46.0862652,146.018129 41.7810484,152.49116 L25.8126079,144.261599 Z M44.6171357,176.217912 C44.6171357,176.217912 53.3330369,173.862959 48.4106703,168.933795 C48.4106703,168.933795 58.3410958,165.822157 53.6098891,158.589969 L44.6311431,153.963315 C50.8207678,144.196481 57.4981797,134.699186 63.6564936,124.94142 C67.4673315,118.892066 71.1710539,112.761934 74.9316299,106.681258 C78.6477118,100.67724 82.9446889,94.7960386 85.6382303,88.2488231 C87.054626,84.8017055 89.2018787,80.3852406 87.0191955,76.8614655 C85.5385306,74.4694197 82.3901605,75.9926797 80.6903208,77.1293548 C78.3304852,78.7020713 76.3175389,80.8806298 74.4158278,83.0707282 C75.4861583,78.6674518 75.2974703,74.9005155 71.9529966,74.1026174 C67.8735462,73.1242031 62.4576246,79.9129311 60.2881249,82.3939985 C60.1043808,82.6041886 59.9189887,82.8226215 59.7286528,83.0361087 C60.1777136,81.357885 60.5567375,79.6574059 60.8212303,77.9223073 C61.4251966,74.0094744 62.7344769,68.973979 59.8505996,65.7461186 C55.422612,60.793875 47.1137495,73.2593842 45.5375046,75.8896454 C38.1745539,88.1713413 34.059673,102.852501 30.2677863,116.53464 C28.3561876,123.434645 26.3753759,130.335475 24.4159873,137.22394 C24.0056528,138.663948 23.2410133,140.597697 22.6189198,142.611401 L15.2955194,138.838695 C15.2955194,138.838695 6.2063621,139.002725 9.5343565,149.029205 C9.5343565,149.029205 1.13897772,149.475138 5.28846516,156.535052 C5.28846516,156.535052 -3.22638854,157.290088 1.75365556,164.391216 L9.54506804,168.802735 L12.0013075,178.765746 L21.7389252,184.274375 L31.4361686,180.759667 L38.2965007,183.784756 C38.2965007,183.784756 49.2255717,185.157998 44.6171357,176.217912 L44.6171357,176.217912 Z" id="Fill-9" fill="#2D2E2C"></path>
                        <path d="M120.483708,70.014214 C122.605417,70.0818045 125.153941,69.5649841 127.202318,69.0292055 C130.831883,68.0812893 134.132687,66.4376852 137.283529,64.4734381 C138.061352,63.9895888 137.92375,62.4786929 136.890498,62.4045082 C132.78056,62.1077692 129.420431,62.4918813 125.609594,64.1865905 C123.516723,65.1171968 119.883037,65.1312095 118.979148,67.7268511 C118.571285,68.89897 119.192555,69.9730002 120.483708,70.014214" id="Fill-10" fill="#F7CB5E"></path>
                        <path d="M39.7409112,27.9094282 C41.0576072,25.0005621 39.6906494,21.7125296 39.087507,18.7665711 C38.783464,17.2820521 38.3327551,15.8296797 37.9883378,14.3542276 C37.60849,12.7254605 37.4115623,11.0752621 36.736735,9.53798946 C36.2481238,8.42274553 34.5095578,7.63473874 33.6229715,8.87527245 C31.5506997,11.7717744 32.6778838,15.1562471 33.6064922,18.2827218 C34.5713552,21.5353105 35.2989162,25.2264135 37.2657205,28.0413122 C37.8589753,28.8911396 39.277019,28.9348262 39.7409112,27.9094282" id="Fill-11" fill="#F7CB5E"></path>
                        <path d="M55.9112232,1.14934389 C54.0177517,3.81917026 54.2187992,7.37426787 54.2245669,10.5139309 C54.2311587,14.1555774 54.8853868,17.5004849 55.9054554,20.9772764 C56.1666523,21.8674933 57.48994,21.9631092 57.8821473,21.1248216 C59.3323256,18.025548 59.6668554,14.9567726 59.5490284,11.56653 C59.440265,8.46725638 59.8143451,4.76049219 58.899744,1.78485983 C58.5421432,0.619335136 56.6972857,0.0415184376 55.9112232,1.14934389" id="Fill-12" fill="#F7CB5E"></path>
                        <path d="M103.987106,40.7260785 C105.260131,40.3543305 106.486191,39.2646391 107.519443,38.4642682 C109.056962,37.2723667 110.517028,36.0417243 111.949079,34.724533 C113.507196,33.291119 115.093329,31.8816089 116.574818,30.3665917 C118.022524,28.8845454 119.847607,27.3588126 120.636965,25.3920927 C120.850372,24.8604354 120.52161,24.2826187 119.917644,24.2991042 C117.964023,24.3518578 115.862912,25.5041941 114.294907,26.6037768 C112.179789,28.0858231 110.200625,29.6494725 108.353296,31.4637016 C106.444993,33.3372784 101.628094,36.9888162 102.880521,40.1672201 C103.060145,40.6230442 103.509206,40.8670295 103.987106,40.7260785" id="Fill-13" fill="#F7CB5E"></path>
                        <path d="M115.384189,53.831225 C114.752208,54.0430637 115.917294,53.6309262 115.945309,53.6078465 C116.086207,53.4891509 116.229577,53.3927108 116.387778,53.2979192 C116.918411,52.9805733 117.441629,52.6665246 118.003573,52.3475302 C119.503189,51.4977028 121.061307,50.7467884 122.615305,50.004941 C125.623601,48.5715269 128.894742,47.3862196 131.291656,45.204364 C132.552322,44.0577976 131.242218,42.3342388 129.889267,42.2847823 C126.34869,42.1553712 122.45628,44.2646906 119.332629,46.064907 C117.678107,47.018593 111.608781,50.6132558 113.868917,53.2962706 C114.255357,53.7537432 114.771983,54.0364695 115.384189,53.831225" id="Fill-14" fill="#F7CB5E"></path>
                        <path d="M91.8056079,28.8573444 C93.2500184,28.4715837 94.3269406,26.8939216 95.3000432,25.8495653 C96.9067748,24.1202366 98.171561,22.049658 99.4585943,20.079641 C100.812369,18.0107111 101.874459,15.7464279 102.826963,13.470605 C103.654224,11.4964666 104.492196,9.20333385 104.151075,7.04126081 C104.054671,6.42387892 103.478719,6.12796423 102.923367,6.42058182 C100.952443,7.46081673 99.7972438,9.52974671 98.6791234,11.3761225 C97.4011538,13.4879147 96.2953928,15.7184026 95.0965239,17.8763543 C93.9347333,19.9675397 92.6814826,22.0026744 91.5098045,24.0897384 C90.7789476,25.392917 90.015956,27.0628979 90.7715319,28.4921906 C90.9659876,28.8589929 91.4397675,28.9546088 91.8056079,28.8573444" id="Fill-15" fill="#F7CB5E"></path>
                        <path d="M74.6358265,23.0560977 L74.5254152,23.2176556 C74.293881,23.5556083 74.7256386,23.8523472 75.0206181,23.794648 C77.9201507,23.2275469 78.3692116,17.9348778 78.8446394,15.6903772 C79.5178187,12.5095004 80.8699452,7.95950304 79.4148231,4.8486896 C79.0992445,4.17525702 78.2357293,3.84637134 77.6721373,4.47859018 C75.1969466,7.25474801 74.3614461,11.1090574 73.8695391,14.6897075 C73.5803274,16.8039726 72.2166654,22.5318588 74.7066874,23.770744 C74.8311061,23.5259344 74.9547009,23.2811247 75.0782956,23.0354908 L74.8929035,22.9711974 C74.7833162,22.9332807 74.7017437,22.9604818 74.6358265,23.0560977" id="Fill-16" fill="#F7CB5E"></path>
                        <path d="M24.6252744,92.392453 C25.433584,88.6271653 25.2514877,84.7629646 25.7986005,80.9539903 C26.209759,78.0912836 27.0485553,75.4428884 28.017538,72.7334968 C29.0507901,69.8427648 30.0692107,66.8003662 31.2705516,63.9928859 C31.6825341,63.0293085 30.8264345,62.0055591 29.8088378,62.5306222 C26.5673598,64.2014274 24.8848233,66.5967703 23.5953182,69.9936071 C22.542291,72.7681164 21.6581766,75.5657053 21.1654456,78.4968269 C20.3950384,83.0781467 20.3488963,87.8457527 21.3252948,92.392453 C21.6779518,94.0311115 24.2726174,94.0311115 24.6252744,92.392453" id="Fill-17" fill="#FAE099"></path>
                        <path d="M37.1577811,53.8271036 L37.0572574,53.7694044 C37.2154587,53.8922214 37.3744839,54.014214 37.5326852,54.137031 C36.8207795,53.5229462 35.8410852,52.9055643 34.8473834,53.3127561 C35.2519502,53.3127561 35.655693,53.3127561 36.0602598,53.3127561 L35.9877509,53.2970949 C35.1950966,53.1223486 34.3958507,53.285555 33.8083636,53.873263 C33.2546592,54.4271758 33.0025259,55.2934887 33.2324122,56.0534701 L33.2530113,56.1218849 C33.2530113,55.717166 33.2530113,55.312447 33.2530113,54.907728 C32.978631,55.8094848 33.3181045,56.7846019 33.9921078,57.4110509 C34.7097813,58.0787135 35.6729963,58.2847823 36.6065486,58.0449183 C37.3818996,57.8454437 38.007289,57.1983879 38.218224,56.4326366 C38.4744771,55.5012059 38.0814458,54.2647936 37.1577811,53.8271036" id="Fill-18" fill="#FAE099"></path>
                        <path d="M88.3292998,123.536031 C89.9113125,124.670233 91.7932484,122.874963 92.8495715,121.819067 C94.4801981,120.189475 95.9550953,118.356288 97.467895,116.616243 C98.7755273,115.111942 100.213346,113.526861 101.102404,111.73159 C101.746745,110.43006 102.32352,107.709129 100.742332,106.782644 C99.464362,106.034202 97.8452709,107.846783 97.1514924,108.681773 C95.7359207,110.384725 94.5321079,112.244289 93.0876973,113.93735 C91.7059081,115.555402 90.3710849,117.216316 89.1128905,118.934929 C88.2263042,120.145789 86.5890858,122.289728 88.3292998,123.536031" id="Fill-19" fill="#FAE099"></path>
                    </g>
                </g>
            </g>
        </g>
    </g>
</svg>