<?xml version="1.0" encoding="UTF-8"?>
<svg width="60" height="59" viewBox="0 0 60 59" version="1.1" xmlns="http://www.w3.org/2000/svg" xmlns:xlink="http://www.w3.org/1999/xlink">
	<g id="Canvas" transform="translate(-2612 1778)">
		<g id="Group 16">
			<g id="Rectangle 6">
				<use xlink:href="#path0_fill" transform="translate(2612 -1778)" fill="#FFFFFF"/>
				<mask id="mask0_outline_ins">
					<use xlink:href="#path0_fill" fill="white" transform="translate(2612 -1778)"/>
				</mask>
				<g mask="url(#mask0_outline_ins)">
					<use xlink:href="#path1_stroke_2x" transform="translate(2612 -1778)" fill="#000000"/>
				</g>
			</g>
			<g id="phone-book-2">
				<g id="Shape">
					<use xlink:href="#path2_fill" transform="translate(2627.45 -1763.98)" fill="#000000"/>
				</g>
			</g>
		</g>
	</g>
	<defs>
		<path id="path0_fill" fill-rule="evenodd" d="M 0 29.2017C 0 13.0741 13.0741 0 29.2017 0L 30.0361 0C 46.1638 0 59.2378 13.0741 59.2378 29.2017C 59.2378 45.3294 46.1638 58.4035 30.0361 58.4035L 29.2017 58.4035C 13.0741 58.4035 0 45.3294 0 29.2017Z"/>
		<path id="path1_stroke_2x" d="M 29.2017 2L 30.0361 2L 30.0361 -2L 29.2017 -2L 29.2017 2ZM 30.0361 56.4035L 29.2017 56.4035L 29.2017 60.4035L 30.0361 60.4035L 30.0361 56.4035ZM 29.2017 -2C 11.9695 -2 -2 11.9695 -2 29.2017L 2 29.2017C 2 14.1786 14.1786 2 29.2017 2L 29.2017 -2ZM 30.0361 2C 45.0592 2 57.2378 14.1786 57.2378 29.2017L 61.2378 29.2017C 61.2378 11.9695 47.2683 -2 30.0361 -2L 30.0361 2ZM 57.2378 29.2017C 57.2378 44.2249 45.0592 56.4035 30.0361 56.4035L 30.0361 60.4035C 47.2683 60.4035 61.2378 46.434 61.2378 29.2017L 57.2378 29.2017ZM 29.2017 56.4035C 14.1786 56.4035 2 44.2249 2 29.2017L -2 29.2017C -2 46.434 11.9695 60.4035 29.2017 60.4035L 29.2017 56.4035Z"/>
		<path id="path2_fill" fill-rule="evenodd" d="M 28.2568 28.9308L 28.2568 1.35535C 28.2568 0.605713 27.6492 0 26.8997 0L 3.84424 0C 3.09229 0 2.48462 0.606567 2.48462 1.35535L 2.48462 2.53638L 3.74023 2.53638C 4.90649 2.53638 5.85571 3.5293 5.85571 4.75171C 5.85571 5.97412 4.90649 6.96887 3.74023 6.96887L 2.48462 6.96887L 2.48462 9.46228L 3.74023 9.46228C 4.90649 9.46228 5.85571 10.457 5.85571 11.6794C 5.85571 12.9017 4.90649 13.8966 3.74023 13.8966L 2.48462 13.8966L 2.48462 16.3898L 3.74023 16.3898C 4.90649 16.3898 5.85571 17.3827 5.85571 18.6051C 5.85571 19.8274 4.90649 20.8223 3.74023 20.8223L 2.48462 20.8223L 2.48462 23.3164L 3.74023 23.3164C 4.90649 23.3164 5.85571 24.3112 5.85571 25.5326C 5.85571 26.755 4.90649 27.7498 3.74023 27.7498L 2.48462 27.7498L 2.48462 28.9308C 2.48462 29.6796 3.09302 30.2853 3.84424 30.2853L 26.8989 30.2853C 27.6492 30.2853 28.2568 29.6777 28.2568 28.9308ZM 4.9231 4.75171C 4.9231 5.43726 4.39478 5.99255 3.74219 5.99255L 1.18286 5.99255C 0.52832 5.9917 0 5.43823 0 4.75171C 0 4.06702 0.52832 3.51196 1.18286 3.51196L 3.74121 3.51196C 4.39404 3.51196 4.9231 4.06726 4.9231 4.75171ZM 4.9231 11.6793C 4.9231 10.9948 4.39478 10.4377 3.74219 10.4377L 1.18286 10.4377C 0.52832 10.4377 0 10.993 0 11.6793C 0 12.364 0.52832 12.9202 1.18286 12.9202L 3.74121 12.9202C 4.39404 12.9183 4.9231 12.364 4.9231 11.6793ZM 3.74219 17.3634C 4.39478 17.3634 4.9231 17.9196 4.9231 18.6041C 4.9231 19.2906 4.39404 19.8458 3.74121 19.8458L 1.18286 19.8458C 0.52832 19.8458 0 19.2888 0 18.6041C 0 17.9176 0.52832 17.3643 1.18286 17.3634L 3.74219 17.3634ZM 4.9231 25.53C 4.9231 24.8464 4.39478 24.2911 3.74219 24.2911L 1.18286 24.2911C 0.52832 24.292 0 24.8453 0 25.53C 0 26.2164 0.52832 26.7717 1.18286 26.7717L 3.74121 26.7717C 4.39404 26.7717 4.9231 26.2164 4.9231 25.53ZM 12.8501 11.5022C 12.8823 11.1003 13.1401 10.6663 13.4707 10.7113C 13.7256 10.7471 14.2378 11.0758 14.6414 11.335L 14.645 11.3373L 14.6484 11.3395L 14.6501 11.3406C 14.8315 11.4569 14.9902 11.5587 15.0928 11.6124C 15.9949 12.0741 17.4485 8.49683 16.7737 8.07568C 16.5835 7.95837 16.4004 7.82581 16.217 7.69312C 15.8914 7.45728 15.5649 7.22107 15.1968 7.06897C 15.1343 7.04333 15.0674 7.0343 14.9998 7.02515C 14.9629 7.02026 14.926 7.01526 14.8894 7.00757C 12.5374 6.48267 10.1375 8.5061 9.89258 11.551C 9.79688 12.7147 9.74341 13.88 9.72046 15.0464L 9.71484 15.0464C 9.7168 15.0785 9.71851 15.1089 9.71851 15.1418C 9.71851 15.1654 9.71753 15.1862 9.71631 15.2089L 9.71606 15.2159L 9.71558 15.2268L 9.71533 15.2295L 9.71484 15.2374L 9.72046 15.2374C 9.74072 16.4038 9.7959 17.5693 9.89258 18.7328C 10.1375 21.7759 12.5374 23.7993 14.8894 23.2744C 14.9243 23.2676 14.9597 23.2629 14.9949 23.2584C 15.0642 23.2493 15.1328 23.2404 15.1968 23.2147C 15.5669 23.0618 15.8948 22.8243 16.2222 22.5872C 16.4036 22.4556 16.5852 22.3241 16.7737 22.2072C 17.4475 21.7869 15.9951 18.2114 15.0928 18.6704C 14.989 18.7249 14.8274 18.829 14.6428 18.9479C 14.2393 19.2078 13.7266 19.538 13.4707 19.5734C 13.1421 19.6184 12.8823 19.1825 12.8501 18.7814C 12.7888 18.032 12.8098 17.1349 12.8298 16.2762L 12.8298 16.2738L 12.8298 16.2715L 12.8298 16.2694C 12.8381 15.9147 12.8462 15.5665 12.8501 15.2383L 12.8501 15.1427L 12.8501 15.0472C 12.8474 14.7262 12.8394 14.3865 12.8311 14.0403C 12.8101 13.1714 12.7883 12.2615 12.8501 11.5022ZM 18.7021 12.0914C 20.3906 13.7744 20.3906 16.5093 18.7021 18.1923L 17.8047 17.2965C 18.9985 16.11 18.9985 14.1765 17.8047 12.988L 18.7021 12.0914ZM 20.3049 19.7863C 22.8726 17.2267 22.8726 13.0597 20.303 10.4983L 19.4055 11.3931C 21.4805 13.4615 21.4805 16.8257 19.4055 18.8932L 20.3049 19.7863ZM 20.9565 9.84778L 21.854 8.95386C 25.2759 12.3657 25.2759 17.9178 21.854 21.3315L 20.9565 20.4369C 23.8838 17.5178 23.8838 12.767 20.9565 9.84778Z"/>
	</defs>
</svg>

