<?xml version="1.0" encoding="UTF-8"?>
<svg width="60" height="60" viewBox="0 0 60 60" version="1.1" xmlns="http://www.w3.org/2000/svg" xmlns:xlink="http://www.w3.org/1999/xlink">
	<g id="Canvas" transform="translate(-2927 1780)">
		<g id="Group 16">
			<g id="Rectangle 6">
				<use xlink:href="#path0_fill" transform="translate(2927 -1780)" fill="#FFFFFF"/>
				<mask id="mask0_outline_ins">
					<use xlink:href="#path0_fill" fill="white" transform="translate(2927 -1780)"/>
				</mask>
				<g mask="url(#mask0_outline_ins)">
					<use xlink:href="#path1_stroke_2x" transform="translate(2927 -1780)" fill="#000000"/>
				</g>
			</g>
			<g id="percentage">
				<g id="Shape">
					<use xlink:href="#path2_fill" transform="translate(2951.97 -1754.09)" fill="#000000"/>
				</g>
				<g id="Shape">
					<use xlink:href="#path3_fill" transform="translate(2952.26 -1745.68)" fill="#000000"/>
				</g>
				<g id="Shape">
					<use xlink:href="#path4_fill" transform="translate(2949.71 -1750.08)" fill="#000000"/>
				</g>
				<g id="Shape">
					<use xlink:href="#path5_fill" transform="translate(2942.64 -1765.21)" fill="#000000"/>
				</g>
			</g>
		</g>
	</g>
	<defs>
		<path id="path0_fill" fill-rule="evenodd" d="M 0 30C 0 13.4315 13.4315 0 30 0C 46.5685 0 60 13.4315 60 30C 60 46.5685 46.5685 60 30 60C 13.4315 60 0 46.5685 0 30Z"/>
		<path id="path1_stroke_2x" d="M 30 -2C 12.3269 -2 -2 12.3269 -2 30L 2 30C 2 14.536 14.536 2 30 2L 30 -2ZM 30 2C 45.464 2 58 14.536 58 30L 62 30C 62 12.3269 47.6731 -2 30 -2L 30 2ZM 58 30C 58 45.464 45.464 58 30 58L 30 62C 47.6731 62 62 47.6731 62 30L 58 30ZM 30 58C 14.536 58 2 45.464 2 30L -2 30C -2 47.6731 12.3269 62 30 62L 30 58Z"/>
		<path id="path2_fill" fill-rule="evenodd" d="M 2.6521 5.31628C 1.97266 5.31628 1.29321 5.05713 0.775879 4.53882C -0.258545 3.50208 -0.258545 1.81531 0.775879 0.778809C 1.27686 0.276489 1.94336 0 2.6521 0C 3.3606 0 4.02686 0.276611 4.52808 0.778809C 5.0293 1.28088 5.30518 1.94861 5.30518 2.65881C 5.30518 3.36902 5.0293 4.03662 4.52808 4.53882C 4.01074 5.05713 3.3313 5.31628 2.6521 5.31628ZM 2.6521 1.03662C 2.21973 1.03662 1.81323 1.20532 1.50757 1.51172C 0.876465 2.14417 0.876465 3.17322 1.50757 3.80566C 2.13867 4.43811 3.16577 4.43799 3.79663 3.80566C 4.10254 3.49927 4.27075 3.09192 4.27075 2.65869C 4.27075 2.22546 4.10254 1.81812 3.79663 1.51184C 3.49097 1.20532 3.08447 1.03662 2.6521 1.03662Z"/>
		<path id="path3_fill" fill-rule="evenodd" d="M 0.775879 4.5376C -0.258545 3.50098 -0.258545 1.81421 0.775879 0.777466C 1.8103 -0.259155 3.49341 -0.259277 4.52808 0.777466C 5.5625 1.81421 5.5625 3.50098 4.52808 4.5376C 4.01074 5.05591 3.33154 5.31506 2.65186 5.31506C 1.97266 5.31506 1.29321 5.05603 0.775879 4.5376ZM 1.50757 3.80457C 2.13867 4.43701 3.16553 4.43689 3.79663 3.80457C 4.42773 3.17212 4.42773 2.14294 3.79663 1.51062C 3.16553 0.878052 2.13843 0.878174 1.50757 1.51062C 0.876465 2.14294 0.876465 3.17212 1.50757 3.80457Z"/>
		<path id="path4_fill" d="M 9.36254 0.0572442L 0.281259 4.72671C 0.0270277 4.85741 -0.0732578 5.16988 0.0571685 5.42457C 0.148832 5.60358 0.329953 5.70643 0.517833 5.70643C 0.597289 5.70643 0.677987 5.68797 0.75358 5.64913L 9.83486 0.979664C 10.0891 0.848966 10.1894 0.536493 10.059 0.281802C 9.92853 0.0271097 9.61677 -0.0733847 9.36254 0.0572442Z"/>
		<path id="path5_fill" fill-rule="evenodd" d="M 26.2017 0C 28.0466 0 29.5476 1.50415 29.5476 3.35291C 29.5476 4.24854 29.1997 5.09058 	28.5679 5.72388L 24.4609 9.83911L 25.0586 15.9275C 25.1201 16.553 24.9009 17.1667 24.4573 17.6112L 12.1909 29.9031C 11.9072 30.1874 11.53 30.3439 11.1289 30.3439C 10.7278 30.3439 10.3506 30.1874 10.0669 29.9031L 0.439209 20.2552C -0.146484 19.6685 -0.146484 18.7136 0.439209 18.1268L 12.7056 5.83484C 13.1489 5.39038 13.761 5.17065 14.3857 5.2323L 19.2468 5.71143L 19.2468 3.35291C 19.2468 1.50415 20.7478 0 22.5928 0L 26.2017 0ZM 11.4592 29.17L 23.7256 16.8782C 23.9492 16.6541 24.0598 16.3445 24.0288 16.0289L 23.241 8.00037C 23.1919 7.5011 22.7947 7.10291 22.2961 7.05383L 20.2812 6.85522L 20.2812 8.3252C 20.6892 8.42017 21.064 8.62695 21.3674 8.93115C 21.7959 9.36035 22.0317 9.93103 22.0317 10.538C 22.0317 11.145 21.7959 11.7157 21.3674 12.1448C 20.9392 12.574 20.3699 12.8104 19.7642 12.8104C 19.1582 12.8104 18.5889 12.574 18.1604 12.1448C 17.7322 11.7157 17.4963 11.145 17.4963 10.538C 17.4963 9.93091 17.7322 9.36035 18.1604 8.93115C 18.4641 8.62683 18.8386 8.42017 19.2468 8.3252L 19.2468 6.7533L 14.2844 6.26416C 14.2495 6.26074 14.2148 6.25903 14.1802 6.25903C 13.9021 6.25903 13.636 6.36865 13.437 6.56799L 1.17065 18.8599C 0.988281 19.0425 0.988281 19.3396 1.17065 19.5222L 10.7986 29.17C 10.8867 29.2585 11.0042 29.3073 11.1289 29.3073C 11.2537 29.3073 11.3711 29.2585 11.4592 29.17ZM 19.3269 9.38306C 19.5374 10.1556 20.1455 10.765 20.9165 10.976C 20.8555 11.1373 20.7615 11.2858 20.636 11.4115C 20.4031 11.6449 20.0935 11.7734 19.7642 11.7734C 19.4348 11.7734 19.125 11.6449 18.8921 11.4115C 18.6592 11.1781 18.531 10.8679 18.531 10.5377C 18.531 10.2076 18.6592 9.89746 18.8923 9.66406C 19.0176 9.53833 19.166 9.44421 19.3269 9.38306ZM 24.3301 8.50415L 27.8362 4.99084C 28.2727 4.55334 28.5132 3.97168 28.5132 3.35291C 28.5132 2.07581 27.4763 1.03674 26.2019 1.03674L 22.5928 1.03674C 21.3184 1.03674 20.2815 2.07581 20.2815 3.35291L 20.2815 5.81335L 22.3977 6.02197C 23.3857 6.11938 24.1733 6.90869 24.2708 7.8988L 24.3301 8.50415Z"/>
	</defs>
</svg>



