<?xml version="1.0" encoding="UTF-8"?>
<svg width="60" height="60" viewBox="0 0 60 60" version="1.1" xmlns="http://www.w3.org/2000/svg" xmlns:xlink="http://www.w3.org/1999/xlink">
	<g id="Canvas" transform="translate(-3033 1780)">
		<g id="Group 16">
			<g id="Rectangle 6">
				<use xlink:href="#path0_fill" transform="translate(3033 -1780)" fill="#FFFFFF"/>
				<mask id="mask0_outline_ins">
					<use xlink:href="#path0_fill" fill="white" transform="translate(3033 -1780)"/>
				</mask>
				<g mask="url(#mask0_outline_ins)">
					<use xlink:href="#path1_stroke_2x" transform="translate(3033 -1780)" fill="#000000"/>
				</g>
			</g>
			<g id="shop">
				<g id="Shape">
					<use xlink:href="#path2_fill" transform="translate(3063.83 -1748.09)" fill="#000000"/>
				</g>
				<g id="Shape">
					<use xlink:href="#path3_fill" transform="translate(3046.2 -1764.4)" fill="#000000"/>
				</g>
			</g>
		</g>
	</g>
	<defs>
		<path id="path0_fill" fill-rule="evenodd" d="M 0 30C 0 13.4315 13.4315 0 30 0C 46.5685 0 60 13.4315 60 30C 60 46.5685 46.5685 60 30 60C 13.4315 60 0 46.5685 0 30Z"/>
		<path id="path1_stroke_2x" d="M 30 -2C 12.3269 -2 -2 12.3269 -2 30L 2 30C 2 14.536 14.536 2 30 2L 30 -2ZM 30 2C 45.464 2 58 	14.536 58 30L 62 30C 62 12.3269 47.6731 -2 30 -2L 30 2ZM 58 30C 58 45.464 45.464 58 30 58L 30 62C 47.6731 62 62 47.6731 62 30L 58 30ZM 30 58C 14.536 58 2 45.464 2 30L -2 30C -2 47.6731 12.3269 62 30 62L 30 58Z"/>
		<path id="path2_fill" fill-rule="evenodd" d="M 2.34375 0L 7.06665 0C 8.35913 0 9.41016 1.03735 9.41016 2.31311L 9.41016 5.88782C 9.41016 7.16357 8.35913 8.20093 7.06665 8.20093L 2.34375 8.20093C 1.05103 8.20093 0 7.16357 0 5.88782L 0 2.31311C 0 1.03735 1.05103 0 2.34375 0ZM 7.06665 6.51868C 7.41455 6.51868 7.70581 6.23828 7.70581 5.88782L 7.70581 2.31311C 7.70581 1.9696 7.42163 1.68225 7.06665 1.68225L 2.34375 1.68225C 1.99585 1.68225 1.70459 1.96265 1.70459 2.31311L 1.70459 5.88782C 1.70459 6.23132 1.98877 6.51868 2.34375 6.51868L 7.06665 6.51868Z"/>
		<path id="path3_fill" fill-rule="evenodd" d="M 34.6438 9.39954C 34.7219 9.52576 34.7573 9.66589 34.7573 9.81311C 34.7573 11.8318 33.5217 13.5631 31.7603 14.3271C 31.7673 14.3551 31.7673 14.3832 31.7673 14.4182L 31.7673 29.1099C 31.7673 29.5724 31.384 29.9509 30.9153 29.9509L 15.1912 29.9509L 15.1699 29.9509L 8.56494 29.9509L 8.5437 29.9509L 3.83521 29.9509C 3.36646 29.9509 2.98291 29.5724 2.98291 29.1099L 2.98291 14.3131C 1.22876 13.5491 0 11.8247 0 9.81311C 0 9.66589 0.0427246 9.52576 0.113525 9.39954L 5.27686 0.427612C 5.42603 0.161255 5.70996 0 6.01538 0L 28.7349 0C 29.0403 0 29.3242 0.168213 29.4734 0.427612L 34.6438 9.39954ZM 28.2375 1.68921L 6.51245 1.68921L 2.47852 8.70557L 32.2786 8.70557L 28.2375 1.68921ZM 24.7366 10.3809C 24.4666 11.8949 23.1243 13.0444 21.5122 13.0444C 19.8999 13.0444 18.5576 11.8949 18.2878 10.3809L 24.7366 10.3809ZM 13.2524 13.0444C 14.8645 13.0444 16.2068 11.8949 16.4768 10.3809L 10.021 10.3809C 10.2981 11.8949 11.6404 13.0444 13.2524 13.0444ZM 1.76123 10.3809L 8.21704 10.3809C 7.94702 11.8949 6.59766 13.0444 4.9856 13.0444C 3.37329 13.0514 2.03101 11.8949 1.76123 10.3809ZM 9.41724 28.2688L 14.3176 28.2688L 14.3247 28.2688L 14.3247 19.1917C 14.3247 18.5258 13.7778 17.993 13.1104 17.993L 10.6316 17.993C 9.95703 17.993 9.41724 18.5327 9.41724 19.1917L 9.41724 28.2688ZM 30.0627 28.2687L 16.0222 28.2687L 16.0222 19.1917C 16.0222 17.6075 14.7153 16.3108 13.1033 16.3108L 10.6245 16.3108C 9.01953 16.3108 7.70557 17.6005 7.70557 19.1917L 7.70557 28.2758L 4.68726 28.2758L 4.68726 14.7267C 4.78662 14.7336 4.88623 14.7336 4.9856 14.7336C 6.70435 14.7336 8.22412 13.8716 9.1189 12.5608C 10.0137 13.8716 11.5337 14.7336 13.2522 14.7336C 14.9709 14.7336 16.4836 13.8716 17.3857 12.5608C 18.2805 13.8716 19.8003 14.7336 21.512 14.7336C 23.2307 14.7336 24.7434 13.8716 25.6382 12.5608C 26.5332 13.8716 28.053 14.7336 29.7717 14.7336C 29.8215 14.7336 29.8694 14.7319 29.9172 14.7302C 29.9651 14.7284 30.0129 14.7267 30.0627 14.7267L 30.0627 28.2687ZM 26.5474 10.3878C 26.8171 11.9019 28.1594 13.0514 29.7717 13.0514C 31.3838 13.0514 32.7261 11.8948 33.0032 10.3878L 26.5474 10.3878Z"/>
	</defs>
</svg>




