<svg width="60" height="59" viewBox="0 0 60 59" version="1.1" xmlns="http://www.w3.org/2000/svg" xmlns:xlink="http://www.w3.org/1999/xlink">
<title>Group 16</title>
<desc>Created using Figma</desc>
<g id="Canvas" transform="translate(-3153 -437)">
<g id="Group 16">
<g id="Rectangle 6">
<use xlink:href="#path0_fill" transform="translate(3153 437)" fill="#FFFFFF"/>
<mask id="mask0_outline_ins">
<use xlink:href="#path0_fill" fill="white" transform="translate(3153 437)"/>
</mask>
<g mask="url(#mask0_outline_ins)">
<use xlink:href="#path1_stroke_2x" transform="translate(3153 437)"/>
</g>
</g>
<g id="placeholder">
<g id="Shape">
<use xlink:href="#path2_fill" transform="translate(3169.04 451)" fill="#231F20"/>
</g>
<g id="Shape">
<use xlink:href="#path3_fill" transform="translate(3178.37 456.235)" fill="#231F20"/>
</g>
</g>
</g>
</g>
<defs>
<path id="path0_fill" fill-rule="evenodd" d="M 0 29.2017C 0 13.0741 13.0741 0 29.2017 0L 30.0361 0C 46.1638 0 59.2378 13.0741 59.2378 29.2017C 59.2378 45.3294 46.1638 58.4035 30.0361 58.4035L 29.2017 58.4035C 13.0741 58.4035 0 45.3294 0 29.2017Z"/>
<path id="path1_stroke_2x" d="M 29.2017 2L 30.0361 2L 30.0361 -2L 29.2017 -2L 29.2017 2ZM 30.0361 56.4035L 29.2017 56.4035L 29.2017 60.4035L 30.0361 60.4035L 30.0361 56.4035ZM 29.2017 -2C 11.9695 -2 -2 11.9695 -2 29.2017L 2 29.2017C 2 14.1786 14.1786 2 29.2017 2L 29.2017 -2ZM 30.0361 2C 45.0592 2 57.2378 14.1786 57.2378 29.2017L 61.2378 29.2017C 61.2378 11.9695 47.2683 -2 30.0361 -2L 30.0361 2ZM 57.2378 29.2017C 57.2378 44.2249 45.0592 56.4035 30.0361 56.4035L 30.0361 60.4035C 47.2683 60.4035 61.2378 46.434 61.2378 29.2017L 57.2378 29.2017ZM 29.2017 56.4035C 14.1786 56.4035 2 44.2249 2 29.2017L -2 29.2017C -2 46.434 11.9695 60.4035 29.2017 60.4035L 29.2017 56.4035Z"/>
<path id="path2_fill" fill-rule="evenodd" d="M 16.9163 22.3898C 19.4448 18.1959 22.6409 12.3 22.6409 9.26938C 22.6409 4.15714 18.4836 0 13.3713 0C 8.25928 0 4.10205 4.15714 4.10205 9.26938C 4.10205 12.3 7.29785 18.1959 9.82642 22.3898C 6.82642 22.6163 0 23.4306 0 26.1306C 0 28.7878 6.93066 30 13.3774 30C 19.8184 30 26.7551 28.7878 26.7551 26.1306C 26.749 23.4306 19.9163 22.6163 16.9163 22.3898ZM 5.38159 9.26938C 5.38159 4.86124 8.96924 1.27347 13.3713 1.27347C 17.7795 1.27347 21.3672 4.86124 21.3672 9.26938C 21.3672 13.1204 15.2327 22.7816 13.3713 25.6224C 11.5103 22.7816 5.38159 13.1204 5.38159 9.26938ZM 1.27344 26.1245C 1.27344 27.0061 5.54077 28.7204 13.3713 28.7204C 21.2019 28.7204 25.4692 27.0122 25.4756 26.1245C 25.4756 25.4388 22.6592 23.9816 16.1694 23.6082C 14.9509 25.5735 14.0327 26.9755 13.9041 27.1286C 13.4939 27.6122 13.0103 27.349 12.845 27.1286C 12.7224 26.9633 11.7979 25.5735 10.5796 23.6082C 4.08984 23.9816 1.27344 25.4449 1.27344 26.1245Z"/>
<path id="path3_fill" fill-rule="evenodd" d="M 4.03467 0C 6.26318 0 8.06934 1.80612 8.06934 4.0347C 8.06934 6.26328 6.26318 8.0694 4.03467 8.0694C 1.80615 8.0694 0 6.26328 0 4.0347C 0 1.80612 1.80615 0 4.03467 0ZM 4.03467 1.27347C 2.51025 1.27347 1.27344 2.51019 1.27344 4.0347C 1.27344 5.55917 2.51025 6.79593 4.03467 6.79593C 5.55908 6.79593 6.7959 5.55917 6.7959 4.0347C 6.7959 2.51019 5.55908 1.27347 4.03467 1.27347Z"/>
</defs>
</svg>
