<?xml version="1.0" encoding="UTF-8"?>
<svg width="60" height="60" viewBox="0 0 60 60" version="1.1" xmlns="http://www.w3.org/2000/svg" xmlns:xlink="http://www.w3.org/1999/xlink">
	<g id="Canvas" transform="translate(-2717 1780)">
		<g id="Group 16">
			<g id="Rectangle 6">
				<use xlink:href="#path0_fill" transform="translate(2717 -1780)" fill="#FFFFFF"/>
				<mask id="mask0_outline_ins">
					<use xlink:href="#path0_fill" fill="white" transform="translate(2717 -1780)"/>
				</mask>
				<g mask="url(#mask0_outline_ins)">
					<use xlink:href="#path1_stroke_2x" transform="translate(2717 -1780)" fill="#000000"/>
				</g>
			</g>
			<g id="tag">
				<g id="Shape">
					<use xlink:href="#path2_fill" transform="translate(2733.88 -1752.55)" fill="#000000"/>
				</g>
				<g id="Shape">
					<use xlink:href="#path3_fill" transform="translate(2729.33 -1767.64)" fill="#000000"/>
				</g>
			</g>
		</g>
	</g>
	<defs>
		<path id="path0_fill" fill-rule="evenodd" d="M 0 30C 0 13.4315 13.4315 0 30 0C 46.5685 0 60 13.4315 60 30C 60 46.5685 46.5685 60 30 60C 13.4315 60 0 46.5685 0 30Z"/>
		<path id="path1_stroke_2x" d="M 30 -2C 12.3269 -2 -2 12.3269 -2 30L 2 30C 2 14.536 14.536 2 30 2L 30 -2ZM 30 2C 45.464 2 58 14.536 58 30L 62 30C 62 12.3269 47.6731 -2 30 -2L 30 2ZM 58 30C 58 45.464 45.464 58 30 58L 30 62C 47.6731 62 62 47.6731 62 30L 58 30ZM 30 58C 14.536 58 2 45.464 2 30L -2 30C -2 47.6731 12.3269 62 30 62L 30 58Z"/>
		<path id="path2_fill" fill-rule="evenodd" d="M 0 5.41125L 5.40015 0L 6.44873 1.05066L 1.04858 6.46179L 0 5.41125ZM 2.30054 7.71106L 7.70068 2.2998L 8.74927 3.35046L 3.34912 8.7616L 2.30054 7.71106ZM 9.99634 4.6051L 4.59619 10.0164L 5.64478 11.0669L 11.0449 5.65576L 9.99634 4.6051ZM 6.90186 12.3214L 12.302 6.91016L 13.3506 7.96082L 7.95044 13.3719L 6.90186 12.3214ZM 9.20044 14.6294L 10.249 15.6799L 15.6492 10.2688L 14.6006 9.21814L 9.20044 14.6294Z"/>
		<path id="path3_fill" fill-rule="evenodd" d="M 24.6245 2.95142C 29.3752 -1.80176 32.636 0.347656 33.7517 1.4657C 34.9395 2.65576 37.0916 5.85095 32.2688 10.6115C 31.1963 11.6862 29.7568 12.53 28.2668 13.1864L 28.4827 21.6108L 14.8352 35.2863L 0 20.4208L 13.7268 6.73816L 22.0405 6.95459C 22.7532 5.27393 23.6599 3.91797 24.6245 2.95142ZM 2.08032 20.4208L 14.8352 33.2018L 27 21.0122L 26.7839 13.785C 25.949 14.088 25.1213 14.3331 24.3655 14.528C 24.2864 15.2491 23.9841 15.9489 23.4441 16.4897C 22.7747 17.2327 21.8821 17.5284 21.0688 17.5284C 20.1763 17.5284 19.3628 17.1533 18.6934 16.5619C 18.1033 15.9633 17.729 15.076 17.729 14.1818C 17.729 13.2874 18.1033 12.4723 18.6934 11.8015C 19.2908 11.2101 20.1763 10.835 21.0688 10.835C 21.9614 10.835 22.7747 11.2101 23.4441 11.8015C 23.8113 12.1765 24.0776 12.631 24.2288 13.1143C 25.0205 12.8978 25.8843 12.6238 26.741 12.292L 26.6328 8.60632L 14.2451 8.2312L 2.08032 20.4208ZM 19.8811 14.6938C 19.9961 15.2275 20.4929 15.2925 20.7737 15.2131C 20.8887 15.2131 21.666 15.1194 22.7961 14.8813C 22.7026 15.076 22.573 15.2637 22.4075 15.4368C 21.738 16.1075 20.4785 16.1075 19.8091 15.4368C 19.5139 15.141 19.2908 14.6938 19.2908 14.1744C 19.2908 13.7273 19.5139 13.208 19.8091 12.9122C 20.1042 12.6166 20.5505 12.3929 21.0686 12.3929C 21.5149 12.3929 21.9612 12.5444 22.4075 12.8401C 22.5947 13.0277 22.7314 13.2368 22.825 13.4604C 21.5005 13.7561 20.5793 13.8788 20.5505 13.8788C 20.1042 13.9509 19.8018 14.3259 19.8811 14.6938ZM 28.1155 7.11316L 28.2307 11.6356C 29.332 11.0946 30.3613 10.4382 31.1531 9.6449C 33.8955 6.89685 34.4138 4.36511 32.636 2.58362C 30.8579 0.802002 28.3315 1.32141 25.5889 4.06946C 24.8765 4.78345 24.2141 5.78601 23.6311 6.9978L 28.1155 7.11316Z"/>
	</defs>
</svg>


