<?xml version="1.0" encoding="UTF-8"?>
<svg width="60" height="60" viewBox="0 0 60 60" version="1.1" xmlns="http://www.w3.org/2000/svg" xmlns:xlink="http://www.w3.org/1999/xlink">
	<g id="Canvas" transform="translate(-2822 1780)">
		<g id="Group 16">
			<g id="Rectangle 6">
				<use xlink:href="#path0_fill" transform="translate(2822 -1780)" fill="#FFFFFF"/>
				<mask id="mask0_outline_ins">
					<use xlink:href="#path0_fill" fill="white" transform="translate(2822 -1780)"/>
				</mask>
				<g mask="url(#mask0_outline_ins)">
					<use xlink:href="#path1_stroke_2x" transform="translate(2822 -1780)" fill="#000000"/>
				</g>
			</g>
			<g id="chat-comment-oval-speech-bubble-with-text-lines">
				<g id="Shape">
					<use xlink:href="#path2_fill" transform="translate(2834 -1766.8)" fill="#000000"/>
				</g>
			</g>
		</g>
	</g>
	<defs>
		<path id="path0_fill" fill-rule="evenodd" d="M 0 30C 0 13.4315 13.4315 0 30 0C 46.5685 0 60 13.4315 60 30C 60 46.5685 46.5685 60 30 60C 13.4315 60 0 46.5685 0 30Z"/>
		<path id="path1_stroke_2x" d="M 30 -2C 12.3269 -2 -2 12.3269 -2 30L 2 30C 2 14.536 14.536 2 30 2L 30 -2ZM 30 2C 45.464 2 58 14.536 58 30L 62 30C 62 12.3269 47.6731 -2 30 -2L 30 2ZM 58 30C 58 45.464 45.464 58 30 58L 30 62C 47.6731 62 62 47.6731 62 30L 58 30ZM 30 58C 14.536 58 2 45.464 2 30L -2 30C -2 47.6731 12.3269 62 30 62L 30 58Z"/>
		<path id="path2_fill" fill-rule="evenodd" d="M 18 0C 8.05957 0 0 7.05151 0 15.75C 0 20.7214 2.63818 25.1471 6.75 28.0339L 6.75 36L 14.635 31.2153C 15.7263 31.3954 16.8491 31.5 18 31.5C 27.9417 31.5 36 24.4485 36 15.75C 36 7.05151 27.9417 0 18 0ZM 25.875 12.375C 26.4961 12.375 27 12.879 27 13.5C 27 14.121 26.4961 14.625 25.875 14.625L 10.125 14.625C 9.50391 14.625 9 14.121 9 13.5C 9 12.879 9.50391 12.375 10.125 12.375L 25.875 12.375ZM 23.625 19.125C 24.2461 19.125 24.75 19.629 24.75 20.25C 24.75 20.871 24.2461 21.375 23.625 21.375L 12.375 21.375C 11.7539 21.375 11.25 20.871 11.25 20.25C 11.25 19.629 11.7539 19.125 12.375 19.125L 23.625 19.125ZM 14.1975 28.8372C 15.417 29.097 16.686 29.25 18 29.25C 26.6985 29.25 33.75 23.2053 33.75 15.75C 33.75 8.29468 26.6985 2.25 18 2.25C 9.30151 2.25 2.25 8.29468 2.25 15.75C 2.25 20.3243 4.91187 24.3607 8.97192 26.8031L 8.90088 32.0209L 14.1975 28.8372Z"/>
	</defs>
</svg>


