<?xml version="1.0" encoding="UTF-8"?>
<svg width="60" height="60" viewBox="0 0 60 60" version="1.1" xmlns="http://www.w3.org/2000/svg" xmlns:xlink="http://www.w3.org/1999/xlink">
	<g id="Canvas" transform="translate(-3139 1780)">
		<g id="Group 16">
			<g id="Rectangle 6">
				<use xlink:href="#path0_fill" transform="translate(3139 -1780)" fill="#FFFFFF"/>
				<mask id="mask0_outline_ins">
					<use xlink:href="#path0_fill" fill="white" transform="translate(3139 -1780)"/>
				</mask>
				<g mask="url(#mask0_outline_ins)">
					<use xlink:href="#path1_stroke_2x" transform="translate(3139 -1780)" fill="#000000"/>
				</g>
			</g>
			<g id="Shape">
				<use xlink:href="#path2_fill" transform="translate(3153.79 -1761.92)" fill="#000000"/>
			</g>
		</g>
	</g>
	<defs>
		<path id="path0_fill" fill-rule="evenodd" d="M 0 30C 0 13.4315 13.4315 0 30 0C 46.5685 0 60 13.4315 60 30C 60 46.5685 46.5685 60 30 60C 13.4315 60 0 46.5685 0 30Z"/>
		<path id="path1_stroke_2x" d="M 30 -2C 12.3269 -2 -2 12.3269 -2 30L 2 30C 2 14.536 14.536 2 30 2L 30 -2ZM 30 2C 45.464 2 58 14.536 58 30L 62 30C 62 12.3269 47.6731 -2 30 -2L 30 2ZM 58 30C 58 45.464 45.464 58 30 58L 30 62C 47.6731 62 62 47.6731 62 30L 58 30ZM 30 58C 14.536 58 2 45.464 2 30L -2 30C -2 47.6731 12.3269 62 30 62L 30 58Z"/>
		<path id="path2_fill" fill-rule="evenodd" d="M 24.3616 4.62329L 28.1096 4.62329C 29.8274 4.62329 31.2329 6.01025 31.2329 7.70544L 31.2329 21.5753C 31.2329 23.2705 29.8274 24.6576 28.1096 24.6576L 3.12329 24.6576C 1.40552 24.6576 0 23.2705 0 21.5753L 0 7.70544C 0 6.01025 1.40552 4.62329 3.12329 4.62329L 6.87134 4.62329C 7.38647 4.62329 7.94116 4.22876 8.10474 3.74646L 9.07349 0.877197C 9.23608 0.394531 9.7915 0 10.3069 0L 20.926 0C 21.4414 0 21.9961 0.394531 22.1594 0.876831L 23.1282 3.74609C 23.291 4.22876 23.8462 4.62329 24.3616 4.62329ZM 10.9314 13.8699C 10.9314 11.3171 13.0286 9.24658 15.6162 9.24658C 18.2034 9.24658 20.3013 11.3171 20.3013 13.8699C 20.3013 16.4235 18.2034 18.4932 15.6162 18.4932C 13.0286 18.4932 10.9314 16.4235 10.9314 13.8699ZM 15.6162 21.5754C 11.304 21.5754 7.80811 18.1255 7.80811 13.8699C 7.80811 9.61462 11.304 6.16443 15.6162 6.16443C 19.928 6.16443 23.4246 9.61462 23.4246 13.8699C 23.4246 18.1255 19.928 21.5754 15.6162 21.5754ZM 25.9233 8.7821C 25.9233 9.37817 26.4131 9.86096 27.0166 9.86096C 27.6201 9.86096 28.1096 9.37817 28.1096 8.7821C 28.1096 8.18665 27.6206 7.70337 27.0166 7.70337C 26.4131 7.70337 25.9233 8.18665 25.9233 8.7821Z"/>
	</defs>
</svg>




