<svg width="37" height="41" viewBox="0 0 37 41" version="1.1" xmlns="http://www.w3.org/2000/svg" xmlns:xlink="http://www.w3.org/1999/xlink">
	<g id="Canvas" transform="translate(2583 1309)">
		<g id="timer" opacity="0.3">
			<g id="Shape">
				<use xlink:href="#path0_fill" transform="translate(-2583 -1309)"/>
			</g>
			<g id="Shape">
				<use xlink:href="#path1_fill" transform="translate(-2566 -1297)"/>
			</g>
		</g>
	</g>
	<defs>
		<path id="path0_fill" fill-rule="evenodd" d="M 18.5 41C 8.29321 41 0 32.7222 0 22.5341C 0 12.8412 7.51343 4.88184 17.0823 4.13892L 17.0823 2.90076L 13.6445 2.90076C 12.8296 2.90076 12.1917 2.26404 12.1917 1.45044C 12.1917 0.636719 12.8296 0 13.6445 0L 23.2136 0C 24.0288 0 24.6667 0.636719 24.6667 1.45044C 24.6667 2.26404 24.0288 2.90076 23.2136 2.90076L 19.9885 2.90076L 19.9885 4.13892C 23.5325 4.42188 26.7576 5.66003 29.4512 7.64111L 31.0459 6.04919L 30.3726 5.37708C 29.8057 4.81104 29.8057 3.89124 30.3726 3.32532C 30.9397 2.75928 31.8611 2.75928 32.4282 3.32532L 35.7949 6.68591C 36.3621 7.25195 36.3621 8.17175 35.7949 8.73767C 35.5115 9.02075 35.157 9.16223 34.7673 9.16223C 34.3774 9.16223 34.0229 9.02075 33.7395 8.73767L 33.0662 8.06555L 31.613 9.51599C 34.9443 12.8412 37 17.4755 37 22.5341C 37 32.7222 28.7068 41 18.5 41ZM 34.1292 22.5695C 34.1292 13.9733 27.1121 6.96899 18.5 6.96899C 9.88794 6.96899 2.87061 13.938 2.87061 22.5695C 2.87061 31.1658 9.88794 38.17 18.5 38.17C 27.1121 38.17 34.1292 31.1658 34.1292 22.5695Z"/>
		<path id="path1_fill" d="M 1.4358 12L 7.5642 12C 8.36965 12 9 11.3533 9 10.5269C 9 9.7006 8.36965 9.05389 7.5642 9.05389L 2.8716 9.05389L 2.8716 1.47305C 2.8716 0.646707 2.24125 0 1.4358 0C 0.63035 0 0 0.646707 0 1.47305L 0 10.5629C 0 11.3533 0.63035 12 1.4358 12Z"/>
	</defs>
</svg>
