<svg id="Слой_1" data-name="Слой 1" xmlns="http://www.w3.org/2000/svg" viewBox="0 0 7.15 12.25"><defs><style>.cls-1{fill:#fff;}</style></defs><title>arrBtnW</title><path class="cls-1" d="M8,6.54a0.39,0.39,0,0,1-.12.28L2.16,12.54a0.39,0.39,0,0,1-.56,0L1,11.93a0.39,0.39,0,0,1,0-.56L5.8,6.54,1,1.71a0.39,0.39,0,0,1,0-.56l0.61-.61a0.39,0.39,0,0,1,.56,0L7.88,6.25A0.39,0.39,0,0,1,8,6.54Z" transform="translate(-0.86 -0.41)"/><path class="cls-1" d="M8,6.54a0.39,0.39,0,0,1-.12.28L2.16,12.54a0.39,0.39,0,0,1-.56,0L1,11.93a0.39,0.39,0,0,1,0-.56L5.8,6.54,1,1.71a0.39,0.39,0,0,1,0-.56l0.61-.61a0.39,0.39,0,0,1,.56,0L7.88,6.25A0.39,0.39,0,0,1,8,6.54Z" transform="translate(-0.86 -0.41)"/></svg>