<?xml version="1.0" encoding="UTF-8"?>
<svg width="34px" height="22px" viewBox="0 0 34 22" version="1.1" xmlns="http://www.w3.org/2000/svg" xmlns:xlink="http://www.w3.org/1999/xlink">
    <defs></defs>
    <g id="Page-1" stroke="none" stroke-width="1" fill="none" fill-rule="evenodd">
        <g id="3.Страница-тестирование-чата" transform="translate(-1270.000000, -4623.000000)" fill-rule="nonzero" fill="#FFFFFF">
            <g id="Group-10" transform="translate(0.000000, 4550.000000)">
                <g id="behance-logo" transform="translate(1270.000000, 73.000000)">
                    <path d="M30.6419675,3.12769408 L22.1401531,3.12769408 L22.1401531,0.931252041 L30.6426775,0.931252041 L30.6426775,3.12769408 L30.6419675,3.12769408 L30.6419675,3.12769408 Z M16.480297,12.1345833 C17.0288724,13.0183292 17.3030023,14.0913613 17.3030023,15.3511361 C17.3030023,16.6539043 16.9939258,17.8226051 16.365123,18.8549411 C15.9650905,19.5380781 15.4684223,20.1151261 14.8716473,20.5796855 C14.199536,21.11694 13.4038097,21.4853384 12.4890441,21.6821731 C11.5713596,21.8793359 10.5781021,21.978943 9.50816705,21.978943 L0,21.978943 L0,0.0202660136 L10.1960557,0.0202660136 C12.7660928,0.0637517917 14.5881299,0.838208885 15.6640603,2.35914449 C16.3096659,3.29195545 16.6295499,4.41126297 16.6295499,5.71230822 C16.6295499,7.05478804 16.3058005,8.12896881 15.653884,8.94510661 C15.2912436,9.40269186 14.7555267,9.8189246 14.0463387,10.1946253 C15.1205336,10.6036378 15.935587,11.2477196 16.480297,12.1345833 Z M4.86902088,8.67746395 L9.33651044,8.67746395 C10.2545893,8.67746395 10.9967517,8.49597236 11.5683619,8.13315329 C12.1395777,7.77090855 12.424594,7.12699084 12.424594,6.20246679 C12.424594,5.18104329 12.0472019,4.5030754 11.2906032,4.17676796 C10.6402645,3.95006758 9.80817169,3.83331237 8.7985058,3.83331237 L4.86902088,3.83331237 L4.86902088,8.67746395 Z M12.854761,15.0374641 C12.854761,13.896824 12.406529,13.1082545 11.5118794,12.6851297 C11.0115824,12.4446451 10.3057077,12.3217363 9.40064501,12.3129571 L4.86902088,12.3129571 L4.86902088,18.16483 L9.33051508,18.16483 C10.2470951,18.16483 10.9565197,18.040034 11.4684919,17.7796937 C12.3917773,17.3010219 12.854761,16.3900359 12.854761,15.0374641 Z M33.7963944,11.4651485 C33.8991044,12.1835663 33.9455684,13.2259122 33.9267146,14.5883299 L22.9159211,14.5883299 C22.9766636,16.1690789 23.5013364,17.2745202 24.4964084,17.9071152 C25.0964965,18.3038204 25.824065,18.4975372 26.6760371,18.4975372 C27.5743944,18.4975372 28.3066172,18.2613192 28.8702599,17.7757554 C29.1773643,17.5183688 29.4482599,17.1550574 29.6824733,16.6966517 L33.718297,16.6966517 C33.6125893,17.6302831 33.1266497,18.5772065 32.2533782,19.5394729 C30.9003991,21.0689415 29.0028677,21.8358502 26.5659118,21.8358502 C24.5527332,21.8358502 22.7785012,21.1890608 21.2384826,19.9001587 C19.7035916,18.606744 18.9327146,16.5090885 18.9327146,13.5992335 C18.9327146,10.870542 19.6247842,8.78199392 21.0135777,7.32825615 C22.4074988,5.87181078 24.2064223,5.14691106 26.4238376,5.14691106 C27.7381624,5.14691106 28.9229559,5.3912519 29.9799536,5.8824771 C31.0336381,6.37419459 31.904464,7.14807734 32.5903016,8.21167383 C33.2109791,9.14834108 33.6101439,10.2313831 33.7963944,11.4651485 Z M29.8239165,11.8748994 C29.7499211,10.7818474 29.3990348,9.954551 28.7672343,9.38915384 C28.1406404,8.82219775 27.3578515,8.53757102 26.4238376,8.53757102 C25.4073086,8.53757102 24.6223898,8.84180737 24.0646636,9.43977785 C23.5031508,10.0365176 23.1537633,10.8478145 23.0105847,11.8749814 L29.8239165,11.8749814 L29.8239165,11.8748994 Z" id="Behance"></path>
                </g>
            </g>
        </g>
    </g>
</svg>