<?xml version="1.0" encoding="UTF-8"?>
<svg width="19px" height="22px" viewBox="0 0 19 22" version="1.1" xmlns="http://www.w3.org/2000/svg" xmlns:xlink="http://www.w3.org/1999/xlink">
    <defs></defs>
    <g id="Page-1" stroke="none" stroke-width="1" fill="none" fill-rule="evenodd">
        <g id="3.Страница-тестирование-чата" transform="translate(-1214.000000, -4623.000000)" fill-rule="nonzero" fill="#FFFFFF">
            <g id="Group-10" transform="translate(0.000000, 4550.000000)">
                <g id="bit-bucket-logo" transform="translate(1214.000000, 73.000000)">
                    <path d="M18.2618913,2.4193125 C18.1256386,2.223375 17.9591821,2.058375 17.7725897,1.9119375 C17.3631603,1.585375 16.9020489,1.3523125 16.4234864,1.1543125 C15.4059538,0.73425 14.3447935,0.48675 13.2681957,0.309375 C11.9539946,0.0941875 10.6290543,0.00825 9.23699457,0 C7.99259783,0.011 6.68846467,0.0914375 5.39439946,0.298375 C4.47553261,0.4461875 3.56807609,0.64625 2.686125,0.9521875 C2.10285598,1.156375 1.53838043,1.398375 1.02357337,1.7524375 C0.778586957,1.9201875 0.553065217,2.110625 0.368486413,2.349875 C0.137595109,2.651 0.0389293478,2.9865 0.0986657609,3.3666875 C0.214782609,4.1174375 0.322173913,4.868875 0.44298913,5.6161875 C0.620184783,6.72375 0.803421196,7.8313125 0.987328804,8.9354375 C1.19271467,10.164 1.40347011,11.391875 1.60348641,12.6204375 C1.65047011,12.9064375 1.76860054,13.149125 1.95653533,13.3560625 C2.07667935,13.48875 2.20487772,13.61525 2.34180163,13.729375 C2.83177446,14.135 3.39020924,14.42375 3.97414946,14.66025 C5.3715788,15.230875 6.83277174,15.4886875 8.32685326,15.57325 C9.41150543,15.635125 10.4948152,15.5959375 11.5740978,15.4446875 C12.4929647,15.3175 13.3923668,15.115375 14.2662636,14.7929375 C14.9139674,14.553 15.5354946,14.260125 16.0952717,13.8428125 C16.3335462,13.6640625 16.5536984,13.46675 16.7295516,13.223375 C16.851038,13.05975 16.9342663,12.876875 16.9671549,12.6699375 C17.2336196,11.0605 17.5101522,9.453125 17.7699049,7.843 C18.0128777,6.34975 18.240413,4.855125 18.4800299,3.361875 C18.5364103,3.01675 18.4592228,2.7053125 18.2618913,2.4193125 Z M9.27592391,13.5025 C7.66505435,13.497 6.36226359,12.1474375 6.36763315,10.4891875 C6.37166033,8.8323125 7.68183424,7.500625 9.30008696,7.5068125 C10.9277364,7.5123125 12.2258288,8.855 12.219788,10.522875 C12.2124049,12.1715 10.8914918,13.508 9.27592391,13.5025 Z M15.1166685,3.020875 C15.0334402,3.1164375 14.9327609,3.201 14.8240272,3.2663125 C14.5219891,3.4505625 14.1857201,3.5475 13.8481087,3.63825 C13.2091304,3.8053125 12.5573995,3.9015625 11.9043261,3.9716875 C11.0445245,4.0651875 10.1827092,4.0975 9.35982337,4.1009375 C8.35974185,4.0954375 7.40395924,4.0541875 6.4522038,3.9373125 C5.73805163,3.848625 5.02658424,3.73725 4.34062228,3.502125 C4.13725,3.430625 3.93924728,3.339875 3.74795652,3.2401875 C3.64996196,3.1906875 3.56337772,3.113 3.488875,3.0311875 C3.35664946,2.883375 3.35732065,2.7218125 3.49223098,2.575375 C3.57076087,2.4894375 3.66674185,2.415875 3.76540761,2.358125 C4.04999457,2.189 4.36277174,2.0906875 4.6775625,2.006125 C5.33734783,1.830125 6.00988587,1.72975 6.68712228,1.6561875 C7.7959375,1.5393125 8.9074375,1.50425 10.0209511,1.5379375 C11.0438533,1.568875 12.0647418,1.6465625 13.0748913,1.83425 C13.5487554,1.9215625 14.0192636,2.022625 14.4676223,2.2089375 C14.6260245,2.2749375 14.7783859,2.358125 14.9260489,2.4468125 C14.9992092,2.4908125 15.0656576,2.5595625 15.1193533,2.6296875 C15.214663,2.7548125 15.2186902,2.902625 15.1166685,3.020875 Z M16.233538,15.6481875 C16.2395788,15.7086875 16.2308533,15.774 16.2194429,15.8345 C16.0147283,16.93725 15.8073288,18.0379375 15.6079837,19.1420625 C15.5401929,19.512625 15.3770924,19.8226875 15.122038,20.08875 C14.8387935,20.38575 14.5058804,20.60575 14.1501467,20.7920625 C13.4930462,21.1344375 12.7956739,21.349625 12.0795082,21.500875 C11.1552717,21.6975 10.219625,21.7855 9.68803804,21.7806875 C8.07045652,21.7765625 6.87975543,21.6445625 5.71657337,21.3008125 C5.17827446,21.1426875 4.65809783,20.937125 4.17282337,20.645625 C3.91844022,20.493 3.68150815,20.317 3.4734375,20.1031875 C3.21301359,19.8336875 3.04387228,19.5215625 2.97608152,19.1434375 C2.77740761,18.0406875 2.56732337,16.938625 2.3619375,15.8365625 C2.35119837,15.780875 2.34784239,15.7245 2.34918478,15.668125 C2.3619375,15.39725 2.59752717,15.2576875 2.83513043,15.3773125 C2.85929348,15.39175 2.88345652,15.4055 2.90560598,15.420625 C3.69358967,16.0070625 4.57285598,16.3989375 5.4950788,16.696625 C6.34212772,16.971625 7.21065489,17.1373125 8.09461957,17.21775 C9.11483696,17.312625 10.1290136,17.28925 11.1418478,17.142125 C12.4842391,16.949625 13.7662228,16.5570625 14.9589375,15.8860625 C15.1965408,15.7526875 15.4193777,15.5904375 15.646913,15.4419375 C15.6845,15.417875 15.7194022,15.3896875 15.7590027,15.3704375 C15.9872092,15.266625 16.2113886,15.3965625 16.233538,15.6481875 Z M10.7572527,10.50775 C10.7538967,11.3348125 10.0914266,12.00925 9.28263587,12.005125 C8.47384511,12.002375 7.82077174,11.3265625 7.82479891,10.495375 C7.8274837,9.662125 8.48257065,8.9959375 9.29605978,9.0000625 C10.1075353,9.0041875 10.7592663,9.6751875 10.7572527,10.50775 Z" id="Shape"></path>
                </g>
            </g>
        </g>
    </g>
</svg>