<svg xmlns="http://www.w3.org/2000/svg">
  <defs>
    <symbol id="close" viewBox="0 0 12 12">
      <polygon points="7.6 6 12 10.4 10.4 12 6 7.6 1.6 12 0 10.4 4.4 6 0 1.6 1.6 0 6 4.4 10.4 0 12 1.6"/>
    </symbol>

    <symbol id="close-rounded" viewBox="0 0 24 24">
      <path d="M16.293 6.293a1 1 0 111.414 1.414L13.414 12l4.293 4.293a1 1 0 01-1.414 1.414L12 13.414l-4.293 4.293a1 1 0 01-1.414-1.414L10.586 12 6.293 7.707a1 1 0 011.414-1.414L12 10.586l4.293-4.293z"/>
    </symbol>

    <symbol id="counter-favorite" viewBox="0 0 12 16">
      <path fill-rule="evenodd" clip-rule="evenodd" d="M1 0C0.734784 0 0.48043 0.105357 0.292893 0.292893C0.105357 0.48043 0 0.734784 0 1V15C0 15.3603 0.193793 15.6927 0.507301 15.8702C0.82081 16.0477 1.20556 16.0429 1.5145 15.8575L6 13.1662L10.4855 15.8575C10.7944 16.0429 11.1792 16.0477 11.4927 15.8702C11.8062 15.6927 12 15.3603 12 15V1C12 0.447715 11.5523 0 11 0H1Z"/>
    </symbol>

    <symbol id="counter-comments" viewBox="0 0 32 32">
      <path d="M18 24v8l-10-8h-6c-1.105 0-2-.895-2-2v-20c0-1.105.895-2 2-2h28c1.105 0 2 .895 2 2v20c0 1.105-.895 2-2 2h-12z"/>
    </symbol>

    <symbol id="counter-views" viewBox="0 0 56 32">
      <path d="M28 0c18.368 0 28 13.81 28 16s-9.632 16-28 16c-18.368 0-28-13.81-28-16s9.632-16 28-16zm0 28.309c6.874 0 12.446-5.511 12.446-12.309s-5.572-12.309-12.446-12.309-12.446 5.511-12.446 12.309 5.572 12.309 12.446 12.309zM28 16c.084-1.721 5.596-3.019 4.284-4.352-2.429-2.468-6.317-2.521-8.684-.117s-2.314 6.354.116 8.821c2.429 2.468 6.317 2.521 8.683.117 1.089-1.106-4.47-3.008-4.399-4.469z"/>
    </symbol>

    <symbol id="counter-rating" viewBox="0 0 10 16">
      <path d="M10,6 L10,10 L5,16 L0,10 L0,6 L5,0 L10,6 Z"/>
    </symbol>

    <symbol id="counter-vote" viewBox="0 0 12 20">
      <polygon points="6 0 12 6.667 8 6.667 8 20 4 20 4 6.667 0 6.667"/>
    </symbol>

    <symbol id="lang" viewBox="0 0 24 24">
      <path fill-rule="evenodd" clip-rule="evenodd" d="M8.02441 13C8.00828 12.6717 8 12.338 8 12C8 11.662 8.00828 11.3283 8.02441 11H5.07089C5.02417 11.3266 5 11.6605 5 12C5 12.3395 5.02417 12.6734 5.07089 13H8.02441ZM8.22761 15H5.67363C6.3957 16.52 7.64943 17.7385 9.1945 18.4151C8.76601 17.4664 8.43213 16.3019 8.22761 15ZM10.2554 15H13.7446C13.567 15.9951 13.3075 16.8615 13.0008 17.5517C12.7068 18.2133 12.4084 18.6248 12.1782 18.8439C12.0963 18.9219 12.0371 18.9634 12 18.9848C11.9629 18.9634 11.9037 18.9219 11.8218 18.8439C11.5916 18.6248 11.2932 18.2133 10.9992 17.5517C10.6925 16.8615 10.433 15.9951 10.2554 15ZM13.9729 13H10.0271C10.0093 12.6744 10 12.3407 10 12C10 11.6593 10.0093 11.3256 10.0271 11H13.9729C13.9907 11.3256 14 11.6593 14 12C14 12.3407 13.9907 12.6744 13.9729 13ZM15.7724 15C15.5679 16.3019 15.234 17.4664 14.8055 18.4151C16.3506 17.7385 17.6043 16.52 18.3264 15H15.7724ZM18.9291 13H15.9756C15.9917 12.6717 16 12.338 16 12C16 11.662 15.9917 11.3283 15.9756 11H18.9291C18.9758 11.3266 19 11.6605 19 12C19 12.3395 18.9758 12.6734 18.9291 13ZM10.9992 6.44832C10.6925 7.13847 10.433 8.0049 10.2554 9H13.7446C13.567 8.0049 13.3075 7.13847 13.0008 6.44832C12.7068 5.78673 12.4084 5.37516 12.1782 5.15605C12.0963 5.07812 12.0371 5.03659 12 5.01516C11.9629 5.03659 11.9037 5.07812 11.8218 5.15605C11.5916 5.37516 11.2932 5.78673 10.9992 6.44832ZM15.7724 9H18.3264C17.6043 7.48001 16.3506 6.26152 14.8055 5.58487C15.234 6.53363 15.5679 7.69807 15.7724 9ZM5.67363 9H8.22761C8.43213 7.69807 8.76601 6.53363 9.1945 5.58487C7.64943 6.26152 6.3957 7.48001 5.67363 9ZM12 3C16.9706 3 21 7.02944 21 12C21 16.9706 16.9706 21 12 21C7.02944 21 3 16.9706 3 12C3 7.02944 7.02944 3 12 3Z"/>
    </symbol>

    <symbol id="header-burger" viewBox="0 0 31 24"><path d="m0 1.714c0-.947.768-1.714 1.714-1.714h27.429c.947 0 1.714.768 1.714 1.714s-.767 1.714-1.714 1.714h-27.429c-.947 0-1.714-.768-1.714-1.714zm0 10.286c0-.947.768-1.714 1.714-1.714h27.429c.947 0 1.714.768 1.714 1.714s-.767 1.714-1.714 1.714h-27.429c-.947 0-1.714-.768-1.714-1.714zm1.714 8.571c-.947 0-1.714.767-1.714 1.714s.768 1.714 1.714 1.714h27.429c.947 0 1.714-.767 1.714-1.714s-.767-1.714-1.714-1.714z"/></symbol>

    <symbol id="header-user" viewBox="0 0 24 24"><path d="m14.5 7.5c0-1.381-1.119-2.5-2.5-2.5s-2.5 1.119-2.5 2.5 1.119 2.5 2.5 2.5 2.5-1.119 2.5-2.5zm2 0c0 2.485-2.015 4.5-4.5 4.5s-4.5-2.015-4.5-4.5 2.015-4.5 4.5-4.5 4.5 2.015 4.5 4.5zm-4.5 7.5c3.548 0 6.483 2.608 6.972 6h2.028c-.501-4.5-4.339-8-9-8s-8.499 3.5-9 8h2.028c.488-3.392 3.424-6 6.972-6z"/></symbol>

    <symbol id="search" viewBox="0 0 24 24"><path d="m17 11c0-3.314-2.686-6-6-6s-6 2.686-6 6 2.686 6 6 6 6-2.686 6-6zm-1.416 6.557c-1.298.909-2.879 1.443-4.584 1.443-4.418 0-8-3.582-8-8s3.582-8 8-8 8 3.582 8 8c0 2-.734 3.828-1.947 5.231.023.02.046.04.068.062l3.293 3.293c.39.39.39 1.024 0 1.414s-1.024.39-1.414 0l-3.293-3.293c-.047-.047-.088-.097-.123-.15z"/></symbol>

    <symbol id="arrow-back" viewBox="0 0 24 24"><path d="m15.707 4.293c.39.391.39 1.024 0 1.414l-6.293 6.293 6.293 6.293c.39.39.39 1.024 0 1.414s-1.024.39-1.414 0l-7-7c-.391-.39-.391-1.024 0-1.414l7-7c.39-.391 1.024-.391 1.414 0z"/></symbol>

    <symbol id="refresh" viewBox="0 0 32 32"><path d="m16.854 3.642c-.566-.471-1.406-.395-1.878.171s-.395 1.406.171 1.878l1.177.981c-1.114-.034-2.233.107-3.315.423-2.177.636-4.095 1.95-5.474 3.75s-2.149 3.993-2.198 6.261c-.048 2.268.627 4.492 1.929 6.349s3.162 3.252 5.31 3.98 4.472.753 6.635.071 4.052-2.037 5.393-3.866 2.064-4.038 2.064-6.306c0-.736-.597-1.333-1.333-1.333s-1.333.597-1.333 1.333c0 1.701-.542 3.358-1.548 4.73s-2.423 2.388-4.045 2.899-3.365.493-4.976-.053-3.006-1.592-3.982-2.985-1.483-3.061-1.447-4.762.614-3.346 1.648-4.696 2.473-2.335 4.106-2.813c.834-.244 1.697-.348 2.554-.315l-1.164.97c-.566.471-.642 1.312-.171 1.878s1.312.642 1.878.171l4-3.333c.304-.253.48-.629.48-1.024s-.176-.771-.48-1.024l-4-3.333z"/></symbol>

    <symbol id="arrow-down" viewBox="0 0 24 24"><path d="m6.47 9.47c.293-.293.768-.293 1.061 0l4.47 4.47 4.47-4.47c.293-.293.768-.293 1.061 0s.293.768 0 1.061l-5 5c-.293.293-.768.293-1.061 0l-5-5c-.293-.293-.293-.768 0-1.061z"/></symbol>

    <symbol id="pull-arrow" viewBox="0 0 24 24"><path fill="#333333" d="M11.2929 4.29289C11.6834 3.90237 12.3166 3.90237 12.7071 4.29289L18.2071 9.79289C18.5976 10.1834 18.5976 10.8166 18.2071 11.2071C17.8166 11.5976 17.1834 11.5976 16.7929 11.2071L13 7.41421V19C13 19.5523 12.5523 20 12 20C11.4477 20 11 19.5523 11 19V7.41421L7.20711 11.2071C6.81658 11.5976 6.18342 11.5976 5.79289 11.2071C5.40237 10.8166 5.40237 10.1834 5.79289 9.79289L11.2929 4.29289Z"/></symbol>

    <symbol id="placeholder-company" viewBox="0 0 24 24">
      <path d="M21.66 10.515c-.262-1.65-3.043-2.07-4.848-2.168-1.11-1.443-2.847-2.378-4.803-2.378-2.637 0-4.881 1.696-5.713 4.053-1.681.652-4.2 1.917-3.936 3.568.264 1.653 3.052 2.073 4.878 2.169 1.11 1.418 2.834 2.334 4.77 2.334 2.619 0 4.849-1.673 5.694-4.004 1.707-.66 4.22-1.924 3.957-3.576zm-12.987 5.269c1.232-.019 2.552-.137 3.877-.348 1.323-.211 2.614-.509 3.791-.873-.892 1.517-2.527 2.479-4.341 2.479-1.249 0-2.416-.448-3.327-1.257zm3.338-8.815c1.612 0 3.048.761 3.976 1.939l.148.212c.594.851.907 1.846.907 2.88 0 .448-.064.895-.185 1.333-1.337.475-2.87.862-4.464 1.116-1.597.255-3.175.362-4.591.327-.55-.829-.844-1.782-.844-2.775 0-.489.072-.977.215-1.452l.019-.064c.656-2.038 2.567-3.516 4.819-3.516zm-8.662 6.464c-.08-.497.732-1.362 2.659-2.211-.036.265-.06.534-.06.81 0 .961.231 1.868.631 2.676-2.104-.206-3.15-.775-3.23-1.275zm17.324-2.761c.079.499-.737 1.364-2.668 2.213.039-.279.067-.563.067-.853 0-.945-.223-1.836-.61-2.634 2.091.208 3.131.777 3.21 1.274zM12.257 11.859c.562.306 1.146.454 1.675.454.761 0 1.411-.306 1.729-.889.539-.99-.111-2.35-1.481-3.096s-2.865-.555-3.404.435c-.54.99.111 2.351 1.48 3.096zm-.602-2.618c.124-.227.443-.366.855-.366.351 0 .768.1 1.192.33.922.502 1.309 1.32 1.081 1.74-.229.42-1.126.537-2.048.035s-1.309-1.32-1.08-1.74zM21.5 0h-19c-1.379 0-2.5 1.122-2.5 2.5v19c0 1.378 1.122 2.5 2.5 2.5h19c1.379 0 2.5-1.122 2.5-2.5v-19c0-1.379-1.122-2.5-2.5-2.5zm1.5 21.5c0 .827-.673 1.5-1.5 1.5h-19c-.827 0-1.5-.673-1.5-1.5v-19c0-.827.673-1.5 1.5-1.5h19c.827 0 1.5.673 1.5 1.5v19z"/>
    </symbol>

    <symbol id="placeholder-hub" viewBox="0 0 24 24">
      <path d="M.96 1.923v20.153c0 .532.431.963.963.963h20.153c.532 0 .963-.431.963-.963v-20.153c0-.532-.431-.963-.963-.963h-20.153c-.532 0-.963.431-.963.963zm-.96 0c0-1.062.861-1.923 1.923-1.923h20.153c1.062 0 1.923.861 1.923 1.923v20.153c0 1.062-.861 1.923-1.923 1.923h-20.153c-1.062 0-1.923-.861-1.923-1.923v-20.153zM12.475 14.592h-.95v-1.056h-4.541s.066.949.106 1.754c.016.334.115.886.95.886h7.921c.835 0 .931-.552.95-.886.046-.828.106-1.754.106-1.754h-4.541v1.056zm-1.716-6.381c.121-.228.162-.272.431-.272h1.619c.269 0 .31.044.431.272l.304.573h-3.089l.304-.573zm.766 3.741h.95v1.056h4.805s-.078-2.354-.106-3.091c-.026-.7-.277-1.133-1.056-1.133h-1.694l-.632-1.191c-.175-.329-.234-.393-.623-.393h-2.34c-.388 0-.448.064-.623.393l-.632 1.191h-1.694c-.779 0-1.027.433-1.056 1.133l-.106 3.091h4.805v-1.056z"/>
    </symbol>

    <symbol id="placeholder-user" viewBox="0 0 24 24">
      <path d="M21.5 24h-19c-1.379 0-2.5-1.122-2.5-2.5v-19c0-1.379 1.122-2.5 2.5-2.5h19c1.379 0 2.5 1.122 2.5 2.5v19c0 1.379-1.122 2.5-2.5 2.5zm-19-23c-.827 0-1.5.673-1.5 1.5v19c0 .827.673 1.5 1.5 1.5h19c.827 0 1.5-.673 1.5-1.5v-19c0-.827-.673-1.5-1.5-1.5h-19zM15.598 12.385zM19.438 15.417l-.002-.005v-.001c-.875-2.226-2.484-3.054-3.445-3.549l-.273-.143c.029-.497-.025-1.034-.167-1.599l-.128.032.123-.044c-.765-2.152-1.757-2.585-2.632-2.967l-.006-.003-.535-2.121c.357-.065.628-.375.628-.752.001-.423-.342-.765-.765-.765s-.766.342-.766.765c0 .358.248.657.581.74l-.825 1.654-.014-.003-.024-.003c-1.053-.033-1.842.369-2.5.947-.633-.322-1.515-.729-2.158-1.814.107-.12.174-.276.174-.45 0-.375-.303-.678-.678-.678s-.678.303-.678.678.303.678.678.678l.221-.04c.416.597 1.09 1.181 1.347 2.828l-.072.091.104.081-.112-.067c-1.157 1.914-.793 4.248.207 5.37-.998 2.546-1.035 4.681-.097 5.868l.002.002.003.003c.119.162.313.233.524.233.189 0 .39-.057.559-.154.312-.179.441-.459.326-.713l-.12.054.119-.056c-.581-1.243-.474-2.713.314-4.37.4.131.778.208 1.145.234l.139.73c.264 1.418.514 2.757 1.297 4.006.132.264.453.387.777.387.122 0 .245-.018.357-.051.385-.116.591-.399.537-.738l-.129.021.125-.042c-.204-.606-.431-1.146-.649-1.67-.373-.894-.725-1.742-.891-2.737.407-.042.797-.129 1.161-.261.825.692 1.661 1.492 2.743 3.406h.001c.072.14.224.215.41.215.105 0 .222-.024.339-.073.365-.155.652-.531.477-1.006v-.001c-.432-1.849-1.426-2.778-2.428-3.547.162-.175.311-.366.442-.576.75.399 1.878 1.005 3.127 2.766l.047.067.011-.008c.151.156.317.24.48.24.096 0 .191-.027.279-.084.306-.194.439-.662.29-1.005zm-8.878-2.493c-.947 0-1.713-.767-1.713-1.713s.767-1.713 1.713-1.713c.947 0 1.713.767 1.713 1.713s-.767 1.713-1.713 1.713zm6.587 4.648l-.084.021v-.001l.084-.02zm-2.007-5.312zm.022 1.006zM11.225 11.604c0 .385-.312.697-.697.697s-.697-.312-.697-.697c0-.385.312-.697.697-.697s.697.312.697.697z"/>
    </symbol>

    <symbol id="logout" viewBox="0 0 24 24">
      <path d="M6 3C4.34315 3 3 4.34315 3 6v12c0 1.6569 1.34315 3 3 3h8c.5523 0 1-.4477 1-1s-.4477-1-1-1H6c-.55228 0-1-.4477-1-1V6c0-.55228.44772-1 1-1h8c.5523 0 1-.44772 1-1s-.4477-1-1-1H6zm11.7502 4.17286c-.3891-.39201-1.0222-.39444-1.4143-.00541-.392.38903-.3944 1.02219-.0054 1.4142l2.4065 2.42495H9.86914c-.55228 0-1 .4477-1 1s.44772 1 1 1H18.737l-2.4065 2.4249c-.389.392-.3866 1.0252.0054 1.4142.3921.389 1.0252.3866 1.4143-.0054l4.0978-4.1293c.3869-.3899.3869-1.0189 0-1.4088l-4.0978-4.12934z"/>
    </symbol>

    <symbol id="pencil" viewBox="0 0 24 24"><path d="m14.323 2.368c.375.375.375.983 0 1.358l-6.115 6.115c-.187.191-.233.386-.201.606.038.256.194.564.461.831s.575.423.831.461c.222.033.419-.014.612-.207l4.412-4.412c.185-.185.427-.279.67-.281.249-.002.498.091.687.281.375.375.375.983 0 1.358l-4.412 4.412c-.192.192-.24.39-.207.612.038.256.194.564.461.831s.575.423.831.461c.219.033.413-.013.603-.198l6.118-6.118c.375-.375.983-.375 1.358 0s.375.983 0 1.358l-7.467 7.467c-.111.111-.247.193-.396.239l-8.825 2.715c-.34.105-.71.013-.961-.239s-.343-.621-.239-.961l2.715-8.825c.046-.15.128-.286.239-.396l1.347-1.347.01-.01c.002-.002.004-.004.006-.006l6.104-6.104c.375-.375.983-.375 1.358 0zm-7.639 9.761-1.772 5.759 5.759-1.772c-.183-.129-.353-.272-.506-.426-.497-.497-.892-1.165-1.003-1.906-.006-.043-.012-.087-.016-.13-.044-.004-.087-.01-.13-.016-.741-.11-1.409-.506-1.906-1.003-.153-.153-.297-.323-.426-.506z"/></symbol>

    <symbol id="pencil-small" viewBox="0 0 12 12">
      <path d="M2 10H4.1715L9.1715 5L7 2.8285L2 7.8285V10ZM0 7L7 0L12 5L5 12H0V7Z"/>
    </symbol>
    <symbol id="report" viewBox="0 0 24 24"><path clip-rule="evenodd" d="m12 20c4.4183 0 8-3.5817 8-8 0-4.41828-3.5817-8-8-8-4.41828 0-8 3.58172-8 8 0 4.4183 3.58172 8 8 8zm0 2c5.5228 0 10-4.4772 10-10 0-5.52285-4.4772-10-10-10-5.52285 0-10 4.47715-10 10 0 5.5228 4.47715 10 10 10zm-1-15c0-.55228.4477-1 1-1s1 .44772 1 1v6c0 .5523-.4477 1-1 1s-1-.4477-1-1zm1 10c.5523 0 1-.4477 1-1s-.4477-1-1-1-1 .4477-1 1 .4477 1 1 1z" fill-rule="evenodd"/></symbol>

    <symbol id="copy" viewBox="0 0 24 24"><path d="m10 19h9v-9h-9zm6-11h4c.552 0 1 .448 1 1v11c0 .552-.448 1-1 1h-11c-.552 0-1-.448-1-1v-4h-4c-.552 0-1-.448-1-1v-11c0-.552.448-1 1-1h11c.552 0 1 .448 1 1zm-8 6v-5c0-.552.448-1 1-1h5v-3h-9v9z"/></symbol>
    <symbol id="collapse" viewBox="0 0 24 24"><path d="m5 5v14h14v-14zm-2 0c0-1.105.895-2 2-2h14c1.105 0 2 .895 2 2v14c0 1.105-.895 2-2 2h-14c-1.105 0-2-.895-2-2zm14 7c0-.552-.448-1-1-1h-8c-.552 0-1 .448-1 1s.448 1 1 1h8c.552 0 1-.448 1-1z"/></symbol>
    <symbol id="bookmark" viewBox="0 0 24 24"><path d="m12 16.823 5 3.177v-15c0-.552-.448-1-1-1h-8c-.552 0-1 .448-1 1v15z"/></symbol>
    <symbol id="dots" viewBox="0 0 24 24">
      <path d="M18.75 14.25C17.508 14.25 16.5 13.242 16.5 12C16.5 10.758 17.508 9.75 18.75 9.75C19.992 9.75 21 10.758 21 12C21 13.242 19.992 14.25 18.75 14.25ZM12 14.25C10.758 14.25 9.75 13.242 9.75 12C9.75 10.758 10.758 9.75 12 9.75C13.242 9.75 14.25 10.758 14.25 12C14.25 13.242 13.242 14.25 12 14.25ZM5.25 14.25C4.008 14.25 3 13.242 3 12C3 10.758 4.008 9.75 5.25 9.75C6.492 9.75 7.5 10.758 7.5 12C7.5 13.242 6.492 14.25 5.25 14.25Z"/>
    </symbol>
    <symbol id="small-arrow" viewBox="0 0 24 24">
      <path d="M13.539,9.879L17.782,14.121L16.368,15.536L12.125,11.293L7.882,15.536L6.468,14.121L10.711,9.879L12.125,8.464L13.539,9.879Z"/>
    </symbol>

    <symbol id="pin" viewBox="0 0 24 24">
      <path fill-rule="evenodd" clip-rule="evenodd" d="M14.3349 7.99483C13.9103 8.35777 13.4394 8.76031 13.4394 9.6C13.4394 10.4402 13.792 10.9113 14.1949 11.4498C14.7324 12.168 15.3596 13.0062 15.3596 15H12.5V19H11.5V15H8.63965C8.63965 13.0062 9.26687 12.168 9.80437 11.4498C10.2073 10.9113 10.5599 10.4402 10.5599 9.6C10.5599 8.7604 10.0891 8.35785 9.66471 7.99494C9.32605 7.70536 9.0169 7.44102 9 7H15C14.9829 7.44096 14.6736 7.70529 14.3349 7.99483Z"/>
    </symbol>
    <symbol id="collapse_pin" viewBox="0 0 18 18">
      <path fill-rule="evenodd" clip-rule="evenodd" d="M2 1.5H16C16.2761 1.5 16.5 1.72386 16.5 2V16C16.5 16.2761 16.2761 16.5 16 16.5H2C1.72386 16.5 1.5 16.2761 1.5 16V2C1.5 1.72386 1.72386 1.5 2 1.5ZM0 2C0 0.89543 0.895431 0 2 0H16C17.1046 0 18 0.895431 18 2V16C18 17.1046 17.1046 18 16 18H2C0.89543 18 0 17.1046 0 16V2ZM4.75 8.25C4.33579 8.25 4 8.58579 4 9C4 9.41421 4.33579 9.75 4.75 9.75H13.25C13.6642 9.75 14 9.41421 14 9C14 8.58579 13.6642 8.25 13.25 8.25H4.75Z"/>
    </symbol>
    <symbol id="expand" viewBox="0 0 24 24">
      <path fill-rule="evenodd" clip-rule="evenodd" d="M5 4.5H19C19.2761 4.5 19.5 4.72386 19.5 5V19C19.5 19.2761 19.2761 19.5 19 19.5H5C4.72386 19.5 4.5 19.2761 4.5 19V5C4.5 4.72386 4.72386 4.5 5 4.5ZM3 5C3 3.89543 3.89543 3 5 3H19C20.1046 3 21 3.89543 21 5V19C21 20.1046 20.1046 21 19 21H5C3.89543 21 3 20.1046 3 19V5ZM12 17C11.5858 17 11.25 16.6642 11.25 16.25V12.75H7.75C7.33579 12.75 7 12.4142 7 12C7 11.5858 7.33579 11.25 7.75 11.25H11.25V7.75C11.25 7.33579 11.5858 7 12 7C12.4142 7 12.75 7.33579 12.75 7.75V11.25H16.25C16.6642 11.25 17 11.5858 17 12C17 12.4142 16.6642 12.75 16.25 12.75H12.75V16.25C12.75 16.6642 12.4142 17 12 17Z"/>
    </symbol>

    <symbol id="arrow-send" viewBox="0 0 16 13">
      <path fill-rule="evenodd" clip-rule="evenodd" d="M15.7071 5.79289C16.0976 6.18342 16.0976 6.81658 15.7071 7.20711L10.2071 12.7071C9.81658 13.0976 9.18342 13.0976 8.79289 12.7071C8.40237 12.3166 8.40237 11.6834 8.79289 11.2929L12.5858 7.5L1 7.5C0.447714 7.5 -3.08265e-07 7.05228 -2.84124e-07 6.5C-2.59983e-07 5.94771 0.447715 5.5 1 5.5L12.5858 5.5L8.79289 1.70711C8.40237 1.31658 8.40237 0.683417 8.79289 0.292893C9.18342 -0.0976314 9.81658 -0.0976314 10.2071 0.292893L15.7071 5.79289Z"/>
    </symbol>

    <symbol id="settings" viewBox="0 0 24 24">
      <path fill-rule="evenodd" clip-rule="evenodd" d="M20 9.67359C19.8335 9.11682 19.6128 8.58348 19.3411 8.08119C18.3042 8.35262 17.4648 7.94633 16.7592 7.2408C16.0537 6.53527 15.8377 5.69564 16.1091 4.65886C15.607 4.38724 15.0737 4.16648 14.5168 4C13.9754 4.92496 12.9977 5.53888 12 5.53888C11.0025 5.53888 10.0248 4.92496 9.48324 4C8.92648 4.16629 8.39314 4.38724 7.89105 4.65867C8.16229 5.69564 7.94648 6.53527 7.24095 7.24099C6.53543 7.94652 5.69581 8.35281 4.65886 8.08176C4.38724 8.58367 4.16648 9.11701 4 9.67378C4.92476 10.2151 5.53886 11.0026 5.53886 12.0001C5.53886 12.9976 4.92495 13.9755 4 14.5167C4.16648 15.0737 4.38724 15.607 4.65886 16.1093C5.69581 15.8379 6.53543 16.0539 7.24095 16.7594C7.94629 17.4651 8.16229 18.3044 7.89105 19.3413C8.39314 19.6128 8.92648 19.8339 9.48343 20C10.025 19.0752 11.0025 18.4609 12 18.4609C12.9977 18.4609 13.9754 19.0752 14.5168 20C15.0739 19.8335 15.6072 19.6128 16.1093 19.3409C15.8381 18.3044 16.0537 17.4649 16.7592 16.7592C17.4648 16.0537 18.3042 15.6472 19.3411 15.9186C19.6128 15.4163 19.8335 14.883 20 14.326C19.075 13.7849 18.4611 12.9974 18.4611 11.9999C18.4611 11.0024 19.0752 10.2147 20 9.67359ZM12 15.479C10.0787 15.479 8.52095 13.9213 8.52095 11.9997C8.52095 10.0782 10.0785 8.52043 12 8.52043C13.9215 8.52043 15.479 10.0782 15.479 11.9997C15.479 13.9213 13.9215 15.479 12 15.479Z"/>
    </symbol>

    <symbol id="rating" viewBox="0 0 24 24">
      <path d="M10 2L6 13H10V22L17 10H13L17 2H10Z"/>
    </symbol>

    <symbol id="subscribers" viewBox="0 0 24 24">
      <path d="M17.1001 9.5C17.1001 8.1 16.0001 7 14.6001 7C13.4001 7 12.3001 7.9 12.1001 9C11.9001 7.9 10.8001 7 9.6001 7C8.2001 7 7.1001 8.1 7.1001 9.5C7.1001 10.7 8.0001 11.7 9.1001 12L12.1001 15L15.1001 12C16.2001 11.7 17.1001 10.6 17.1001 9.5Z"/>
      <path d="M20 3.9V15.9H16H15.2L14.6 16.5L12 19.1L9.4 16.5L8.8 15.9H8.1H4V3.9H20ZM20 2H4C2.9 2 2 2.9 2 4V16C2 17.1 2.9 18 4 18H8L12 22L16 18H20C21.1 18 22 17.1 22 16V3.9C22 2.8 21.2 2 20 2Z"/>
    </symbol>

    <symbol id="contribution" viewBox="0 0 24 24">
      <path d="M20 8H19V7C19 5.9 18.1 5 17 5C15.9 5 15 5.9 15 7V10H9V7C9 5.9 8.1 5 7 5C5.9 5 5 5.9 5 7V8H4C2.9 8 2 8.9 2 10V14C2 15.1 2.9 16 4 16H5V17C5 18.1 5.9 19 7 19C8.1 19 9 18.1 9 17V14H15V17C15 18.1 15.9 19 17 19C18.1 19 19 18.1 19 17V16H20C21.1 16 22 15.1 22 14V10C22 8.9 21.1 8 20 8Z"/>
    </symbol>

    <symbol id="sorting-down" viewBox="0 0 24 24">
      <path fill-rule="evenodd" clip-rule="evenodd" d="M12 7C11.4477 7 11 7.44772 11 8V14.5858L9.70711 13.2929C9.31658 12.9024 8.68342 12.9024 8.29289 13.2929C7.90237 13.6834 7.90237 14.3166 8.29289 14.7071L11.2929 17.7071C11.6834 18.0976 12.3166 18.0976 12.7071 17.7071L15.7071 14.7071C16.0976 14.3166 16.0976 13.6834 15.7071 13.2929C15.3166 12.9024 14.6834 12.9024 14.2929 13.2929L13 14.5858V8C13 7.44772 12.5523 7 12 7Z"/>
    </symbol>
    <symbol id="karma" viewBox="0 0 24 24">
      <path d="m5 10h5.1v11.9h4v-11.9h4.9l-6.9-8z"/>
    </symbol>
    <symbol id="page-settings" viewBox="0 0 24 24">
      <path d="M20 2H4a2 2 0 00-2 2v16c0 1.1.9 2 2 2h16a2 2 0 002-2V4a2 2 0 00-2-2zm0 18H4V6h16v14zm-6.5-7a1.5 1.5 0 11-3 0 1.5 1.5 0 013 0zM12 9c-2.7 0-5 1.7-6 4 1 2.3 3.3 4 6 4s5-1.7 6-4c-1-2.3-3.3-4-6-4zm0 6.5a2.5 2.5 0 110-5 2.5 2.5 0 010 5z"/>
    </symbol>

    <symbol id="grade" viewBox="0 0 24 24">
      <path d="M12 17L6.5 20L7.5 14L3 9.5L9 9L12 3L15 9L21 9.5L16.5 14L17.5 20L12 17Z"/>
    </symbol>
    <symbol id="write" viewBox="0 0 24 24">
      <path fill-rule="evenodd" clip-rule="evenodd" d="M14.9195 2.46678C15.3101 2.8573 15.3101 3.49047 14.9195 3.88099L8.54928 10.2512C8.35407 10.4497 8.30625 10.6534 8.34031 10.8821C8.38002 11.1487 8.54258 11.4695 8.82068 11.7476C9.09878 12.0257 9.41953 12.1882 9.68615 12.2279C9.91729 12.2624 10.1229 12.2132 10.3233 12.0127L14.9195 7.41653C15.1125 7.22354 15.3647 7.12592 15.6177 7.12368C15.8766 7.12134 16.1363 7.21896 16.3338 7.41653C16.7244 7.80705 16.7244 8.44022 16.3338 8.83074L11.7376 13.4269C11.5372 13.6274 11.488 13.8329 11.5224 14.0641C11.5622 14.3307 11.7247 14.6514 12.0028 14.9295C12.2809 15.2076 12.6017 15.3702 12.8683 15.4099C13.0961 15.4438 13.299 15.3965 13.4967 15.2033L19.8693 8.83074C20.2598 8.44021 20.893 8.44021 21.2835 8.83074C21.674 9.22126 21.674 9.85443 21.2835 10.245L14.928 16.6004L14.9196 16.6089L14.9049 16.6235L13.5053 18.0231C13.39 18.1385 13.2482 18.2238 13.0923 18.2718L3.89991 21.1002C3.54588 21.2092 3.16064 21.1135 2.89872 20.8516C2.6368 20.5896 2.54111 20.2044 2.65005 19.8504L5.47847 10.658C5.52644 10.5021 5.61181 10.3603 5.72715 10.245L7.13073 8.84136C7.13424 8.83782 7.13777 8.83428 7.1413 8.83074C7.14333 8.82871 7.14537 8.82669 7.14741 8.82469L13.5053 2.46678C13.8958 2.07625 14.529 2.07625 14.9195 2.46678ZM6.96289 12.6344L5.1171 18.6332L11.116 16.7873C10.9252 16.6533 10.7484 16.5036 10.5886 16.3438C10.0712 15.8264 9.65924 15.1306 9.54427 14.3587C9.53755 14.3136 9.53189 14.2684 9.5273 14.2231C9.48191 14.2185 9.43665 14.2128 9.39152 14.2061C8.61958 14.0911 7.92386 13.6792 7.40647 13.1618C7.24667 13.002 7.09693 12.8252 6.96289 12.6344Z"/>
    </symbol>

    <symbol id="edit" viewBox="0 0 20 20">
      <path d="M2.5 0H17.5C18.8806 0 20 1.11937 20 2.5V17.5C20 18.8806 18.8806 20 17.5 20H2.5C1.11937 20 0 18.8806 0 17.5V2.5C0 1.11937 1.11937 0 2.5 0ZM15.2044 4.74187C14.0481 3.58562 13.1806 3.75875 13.1806 3.75875L4.50625 12.4331L3.69688 16.2494L7.51312 15.44L16.1875 6.76625C16.1875 6.76625 16.3612 5.89813 15.2044 4.74187ZM7.28625 14.9819L5.98562 15.2619C5.86 15.0269 5.70875 14.7919 5.43188 14.515C5.155 14.2381 4.92 14.0875 4.68563 13.9612L4.96625 12.6606L5.3425 12.2844C5.3425 12.2844 6.05062 12.2988 6.84937 13.0981L7.66313 14.6056L7.28688 14.9819H7.28625Z"/>
    </symbol>

    <symbol id="trash" viewBox="0 0 20 20">
      <path fill-rule="evenodd" clip-rule="evenodd" d="M2.5 0h15A2.5 2.5 0 0120 2.5v15a2.5 2.5 0 01-2.5 2.5h-15A2.5 2.5 0 010 17.5v-15A2.5 2.5 0 012.5 0zM12 5a1 1 0 00-1-1H9a1 1 0 00-1 1v1H5.5a.5.5 0 000 1h9a.5.5 0 000-1H12V5zm-1 1V5H9v1h2zM5 8.5c0-.28.22-.5.5-.5h9a.5.5 0 010 1h-.63l-.76 6.12a1 1 0 01-1 .88H7.89a1 1 0 01-.99-.88L6.13 9H5.5a.5.5 0 01-.5-.5z"/>
    </symbol>

    <symbol id="moderator-check" viewBox="0 0 20 20">
      <path fill-rule="evenodd" clip-rule="evenodd" d="M2 0C0.895431 0 0 0.895431 0 2V18C0 19.1046 0.895431 20 2 20H18C19.1046 20 20 19.1046 20 18V2C20 0.895431 19.1046 0 18 0H2ZM8.75 10.8482L13.75 6L15 7.21182L8.75 13.2727L5 9.63727L6.25 8.42455L8.75 10.8482Z"/>
    </symbol>

    <symbol id="flag" viewBox="0 0 24 24"><path d="m4 3v18h2v-6h14l-4-6 4-6z"/></symbol>
    <symbol id="barbell" viewBox="0 0 24 24"><path d="m20 8h-1v-1c0-1.1-.9-2-2-2s-2 .9-2 2v3h-6v-3c0-1.1-.9-2-2-2s-2 .9-2 2v1h-1c-1.1 0-2 .9-2 2v4c0 1.1.9 2 2 2h1v1c0 1.1.9 2 2 2s2-.9 2-2v-3h6v3c0 1.1.9 2 2 2s2-.9 2-2v-1h1c1.1 0 2-.9 2-2v-4c0-1.1-.9-2-2-2z"/></symbol>
    <symbol id="lightning" viewBox="0 0 24 24"><path d="m10 2-4 11h4v9l7-12h-4l4-8z"/></symbol>
    <symbol id="mail" viewBox="0 0 24 24"><path d="m19.7616 10.1122c-.502.2007-6.5255 3.1121-6.8267 3.3129-.4016.1004-.6024.1004-.9035.1004-.3012 0-.502 0-.8032-.2008-.3011-.1004-6.42506-3.0118-6.82663-3.3129-.40157-.10043-.40157.1004-.40157.2007v6.0236c0 .4015.50196.8031.90353.8031h14.25567c.4016 0 .9035-.4016.9035-.8031v-6.0236c0-.1003 0-.30113-.3011-.1003zm-15.25964-2.10828c.40157.30118 6.52554 3.71448 6.72624 3.81488.2008.1004.502.2008.8032.2008.3011 0 .6023-.1004.8031-.2008s6.3247-3.5137 6.7263-3.81488c.4015-.20078.8031-1.00392 0-1.00392h-15.05884c-.80314 0-.40157.80314 0 1.00392z"/></symbol>

    <symbol id="notifications" viewBox="0 0 24 24">
      <path fill-rule="evenodd" clip-rule="evenodd" d="M13.5 3.5l-.1.6A7 7 0 0119 11v5h1c.5 0 1 .4 1 1s-.5 1-1 1h-4.5a3.5 3.5 0 11-7 0H4a1 1 0 01-1-1c0-.6.5-1 1-1h1v-5a7 7 0 015.6-6.9l-.1-.6a1.5 1.5 0 013 0zM9.1 16H17v-5a5 5 0 00-10 0v5h2.1zm1.4 2a1.5 1.5 0 003 0h-3z"/>
    </symbol>

    <symbol id="notifications-filled" viewBox="0 0 24 24">
      <path fill-rule="evenodd" clip-rule="evenodd" d="M13.5 3.5l-.1.6A7 7 0 0119 11v5h1c.5 0 1 .4 1 1s-.5 1-1 1h-4.5a3.5 3.5 0 11-7 0H4a1 1 0 01-1-1c0-.6.5-1 1-1h1v-5a7 7 0 015.6-6.9l-.1-.6a1.5 1.5 0 013 0zm-3 14.5a1.5 1.5 0 003 0h-3z"/>
    </symbol>

    <symbol id="user-group" viewBox="0 0 24 24">
      <path d="M16 11a3 3 0 10-1.8-5.4 4 4 0 010 4.8 3 3 0 001.8.6z"/>
      <path d="M11.3 11.3a4 4 0 10-4.5 0C3.4 12.3 2 15 2 15v3c0 1.1.9 2 2 2h10a2 2 0 002-2v-3s-1.4-2.8-4.8-3.7zM9 6a2 2 0 012 2 2 2 0 01-2 2 2 2 0 01-2-2c0-1.1.9-2 2-2zm5 12H4v-2.4A6 6 0 019 13a6 6 0 015 2.6V18zM18 12h-2l2 3v4h2a2 2 0 002-2v-1a4 4 0 00-4-4z"/>
    </symbol>

    <symbol id="rss" viewBox="0 0 24 24">
      <path fill-rule="evenodd" clip-rule="evenodd" d="M17 20H20C20 11.16 12.84 4 4 4V7C11.18 7 17 12.82 17 20ZM6 20C7.10457 20 8 19.1046 8 18C8 16.8954 7.10457 16 6 16C4.89543 16 4 16.8954 4 18C4 19.1046 4.89543 20 6 20ZM14 20H11C11 16.13 7.87 13 4 13V10C9.52 10 14 14.48 14 20Z"/>
    </symbol>

    <symbol id="company" viewBox="0 0 24 24">
      <path d="M22 19h-1V3c0-.6-.4-1-1-1H8c-.6 0-1 .4-1 1v2H4c-.6 0-1 .4-1 1v13H2c-.6 0-1 .4-1 1s.4 1 1 1h20c.6 0 1-.4 1-1s-.4-1-1-1zM7 19H5V7h2v12zm12 0H9V4h10v15z"/>
      <path d="M11 7h2v2h-2zm0 4h2v2h-2zm0 4h2v2h-2zm4-8h2v2h-2zm0 4h2v2h-2zm0 4h2v2h-2z"/>
    </symbol>

    <symbol id="user-notice-error" viewBox="0 0 24 24">
      <path d="M22 12a10 10 0 11-20 0 10 10 0 0120 0zm-5 1v-2H7v2h10z"/>
    </symbol>

    <symbol id="user-notice-warning" viewBox="0 0 24 24">
      <path d="M21.8 19.1l-8-16c-.3-.7-1-1.1-1.8-1.1s-1.5.4-1.8 1.1l-8 16c-.3.6-.3 1.4.1 1.9.4.6 1 1 1.7 1h16c.7 0 1.3-.4 1.7-.9a2 2 0 00.1-2zM13 19h-2v-2h2v2zm0-4h-2V8h2v7z"/>
    </symbol>

    <symbol id="user-notice-info" viewBox="0 0 24 24">
      <path d="M12 2A10 10 0 002 12a10 10 0 0010 10 10 10 0 0010-10A10 10 0 0012 2zm1 15h-2v-6h2v6zm0-8h-2V7h2v2z"/>
    </symbol>

    <symbol id="mark-all-read" viewBox="0 0 24 24">
      <path d="M18.0002 6.99984L16.5902 5.58984L10.2502 11.9298L11.6602 13.3398L18.0002 6.99984ZM22.2402 5.58984L11.6602 16.1698L7.48016 11.9998L6.07016 13.4098L11.6602 18.9998L23.6602 6.99984L22.2402 5.58984ZM0.410156 13.4098L6.00016 18.9998L7.41016 17.5898L1.83016 11.9998L0.410156 13.4098Z"/>
    </symbol>
  </defs>
</svg>