<?xml version="1.0" encoding="UTF-8"?>
<svg width="44px" height="44px" viewBox="0 0 44 44" version="1.1" xmlns="http://www.w3.org/2000/svg" xmlns:xlink="http://www.w3.org/1999/xlink">
    <defs></defs>
    <g id="Page-1" stroke="none" stroke-width="1" fill="none" fill-rule="evenodd">
        <g id="Монополист" transform="translate(-1157.000000, -2895.000000)" fill-rule="nonzero" fill="#000000">
            <g id="Group-21" transform="translate(0.000000, 2697.000000)">
                <g id="Group-17" transform="translate(358.000000, 92.000000)">
                    <g id="Group-3" transform="translate(799.000000, 106.000000)">
                        <g id="chat-comment-oval-speech-bubble-with-text-lines">
                            <path d="M28.74375,23.26875 L15.05625,23.26875 C14.3007,23.26875 13.6875,23.88195 13.6875,24.6375 C13.6875,25.39305 14.3007,26.00625 15.05625,26.00625 L28.74375,26.00625 C29.4993,26.00625 30.1125,25.39305 30.1125,24.6375 C30.1125,23.88195 29.4993,23.26875 28.74375,23.26875 Z M31.48125,15.05625 L12.31875,15.05625 C11.5632,15.05625 10.95,15.66945 10.95,16.425 C10.95,17.18055 11.5632,17.79375 12.31875,17.79375 L31.48125,17.79375 C32.2368,17.79375 32.85,17.18055 32.85,16.425 C32.85,15.66945 32.2368,15.05625 31.48125,15.05625 Z M21.9,0 C9.80576078,0 0,8.57928922 0,19.1625 C0,25.211051 3.2097098,30.5956598 8.2125,34.1078902 L8.2125,43.8 L17.8060598,37.9786794 C19.133801,38.197751 20.4997598,38.325 21.9,38.325 C33.9956706,38.325 43.8,29.7457108 43.8,19.1625 C43.8,8.57928922 33.9956706,0 21.9,0 Z M21.9,35.5875 C20.3013,35.5875 18.75735,35.40135 17.2735892,35.0851598 L10.8294784,38.9586686 L10.9157186,32.6104598 C5.97598039,29.6389304 2.7375,24.7278912 2.7375,19.1625 C2.7375,10.0918206 11.3167892,2.7375 21.9,2.7375 C32.4832108,2.7375 41.0625,10.0918206 41.0625,19.1625 C41.0625,28.2331794 32.4832108,35.5875 21.9,35.5875 Z" id="Shape"></path>
                        </g>
                    </g>
                </g>
            </g>
        </g>
    </g>
</svg>