<?xml version="1.0" encoding="UTF-8"?>
<svg width="30px" height="30px" viewBox="0 0 30 30" version="1.1" xmlns="http://www.w3.org/2000/svg" xmlns:xlink="http://www.w3.org/1999/xlink">
    <defs></defs>
    <g id="Page-1" stroke="none" stroke-width="1" fill="none" fill-rule="evenodd">
        <g id="Монополист" transform="translate(-1275.000000, -1429.000000)" fill-rule="nonzero" fill="#002354">
            <g id="Group-23" transform="translate(1268.000000, 1262.000000)">
                <g id="Group-7" transform="translate(7.000000, 71.000000)">
                    <g id="Group-5" transform="translate(0.000000, 96.000000)">
                        <g id="checked-7">
                            <path d="M15,0 C6.68181818,0 0,6.68181818 0,15 C0,23.3181818 6.68181818,30 15,30 C23.3181818,30 30,23.3181818 30,15 C30,6.68181818 23.3181818,0 15,0 Z M23.6590909,10.2954545 L23.6590909,10.2954545 L12.75,21.6136364 C12.6136364,21.75 12.4772727,21.8181818 12.2727273,21.8181818 C12.0681818,21.8181818 11.8636364,21.75 11.7954545,21.6136364 L6.47727273,15.8863636 L6.34090909,15.75 C6.20454545,15.6136364 6.13636364,15.4090909 6.13636364,15.2727273 C6.13636364,15.1363636 6.20454545,14.9318182 6.34090909,14.7954545 L7.29545455,13.8409091 C7.56818182,13.5681818 7.97727273,13.5681818 8.25,13.8409091 L8.31818182,13.9090909 L12.0681818,17.9318182 C12.2045455,18.0681818 12.4090909,18.0681818 12.5454545,17.9318182 L21.6818182,8.45454545 L21.75,8.45454545 C22.0227273,8.18181818 22.4318182,8.18181818 22.7045455,8.45454545 L23.6590909,9.40909091 C23.9318182,9.61363636 23.9318182,10.0227273 23.6590909,10.2954545 L23.6590909,10.2954545 Z" id="Shape"></path>
                        </g>
                    </g>
                </g>
            </g>
        </g>
    </g>
</svg>