<svg width="21" height="21" viewBox="0 0 21 21" version="1.1" xmlns="http://www.w3.org/2000/svg" xmlns:xlink="http://www.w3.org/1999/xlink">
<title>idea-2</title>
<desc>Created using Figma</desc>
<g id="Canvas" transform="translate(1045 -1221)">
<g id="idea-2">
<g id="Path">
<use xlink:href="#path0_fill" transform="translate(-1040 1222)" fill="#FFFFFF"/>
</g>
<g id="Shape">
<use xlink:href="#path1_fill" transform="translate(-1041 1221)" fill="#CBCBCB"/>
</g>
<g id="Path">
<use xlink:href="#path2_fill" transform="translate(-1036 1228)" fill="#CBCBCB"/>
</g>
<g id="Shape">
<use xlink:href="#path3_fill" transform="translate(-1026 1228)" fill="#CBCBCB"/>
</g>
<g id="Shape">
<use xlink:href="#path4_fill" transform="translate(-1026 1225)" fill="#CBCBCB"/>
</g>
<g id="Shape">
<use xlink:href="#path5_fill" transform="translate(-1026 1231)" fill="#CBCBCB"/>
</g>
<g id="Shape">
<use xlink:href="#path3_fill" transform="translate(-1045 1228)" fill="#CBCBCB"/>
</g>
<g id="Shape">
<use xlink:href="#path5_fill" transform="translate(-1045 1225)" fill="#CBCBCB"/>
</g>
<g id="Shape">
<use xlink:href="#path6_fill" transform="translate(-1045 1231)" fill="#CBCBCB"/>
</g>
</g>
</g>
<defs>
<path id="path0_fill" fill-rule="evenodd" d="M 0.0142021 5.61584C 0.207405 7.93911 1.67441 11 1.67441 11L 9.8907 11C 9.8907 11 11.901 6.60186 11.9967 5.12038C 12.0924 3.63889 10.1232 0.0124139 5.85672 3.46751e-05C 1.59029 -0.0123446 -0.179001 3.29257 0.0142021 5.61584Z"/>
<path id="path1_fill" fill-rule="evenodd" d="M 5.50708 0.14917C 2.78821 0.694702 0.623047 2.84753 0.119507 5.50623C -0.194458 7.16357 0.11499 8.85034 0.990601 10.2556C 2.02222 11.9114 2.54529 13.5645 2.54529 15.1691L 2.54529 16.4661C 2.54529 17.4215 3.05359 18.1678 3.81799 18.4336L 3.81799 19.1543C 3.81799 20.172 4.67444 21 5.72717 21L 8.27271 21C 9.32532 21 10.1818 20.172 10.1818 19.1543L 10.1818 18.4331C 10.9225 18.1792 11.4545 17.4954 11.4545 16.6932L 11.4545 15.163C 11.4545 13.5186 11.968 11.8595 12.9396 10.3651C 13.6234 9.31323 14 8.03552 14 6.76709C 14 2.50928 9.97095 -0.746582 5.50708 0.14917ZM 8.90906 19.1542C 8.90906 19.4934 8.62354 19.7694 8.27271 19.7694L 5.72717 19.7694C 5.37634 19.7694 5.09082 19.4934 5.09082 19.1542L 5.09082 18.5389L 8.90906 18.5389L 8.90906 19.1542ZM 9.54529 17.3085C 9.89624 17.3085 10.1818 17.0325 10.1818 16.6932L 10.1818 16.037L 3.81799 16.037L 3.81799 16.4661C 3.81799 16.9779 4.06775 17.3085 4.45435 17.3085L 9.54529 17.3085ZM 10.1888 14.8064L 3.8103 14.8064C 3.79309 14.3977 3.74695 13.9873 3.67212 13.5759L 10.3195 13.5759C 10.2834 13.7834 10.2545 13.9915 10.2325 14.1998C 10.2113 14.4019 10.1967 14.6041 10.1888 14.8064ZM 10.6165 12.3455C 10.899 11.4357 11.3167 10.549 11.8619 9.71033C 12.4199 8.85205 12.7272 7.80676 12.7272 6.76709C 12.7272 3.72302 10.1881 1.23218 6.98584 1.23218C 4.05737 1.23218 1.83521 3.27881 1.37134 5.72778C 1.1134 7.08997 1.36536 8.47253 2.08081 9.62073C 2.64539 10.527 3.07336 11.4373 3.3634 12.3455L 6.36353 12.3455L 6.36353 9.51807L 5.26978 8.42554C 5.02539 8.18127 5.03198 7.79187 5.28455 7.55554C 5.53711 7.31921 5.94006 7.32556 6.18445 7.56982L 6.99988 8.3844L 7.81531 7.56982C 8.05969 7.32556 8.46252 7.31921 8.71509 7.55554C 8.96765 7.79187 8.97437 8.18127 8.72986 8.42554L 7.63623 9.51807L 7.63623 12.3455L 10.6165 12.3455Z"/>
<path id="path2_fill" fill-rule="evenodd" d="M 2.66667 5L 2.66667 2.15162L 3.81241 1.05087C 4.06845 0.804882 4.06152 0.412486 3.79694 0.174428C 3.53236 -0.0636708 3.11032 -0.0571831 2.85427 0.188808L 2 1.00951L 1.14573 0.188808C 0.889728 -0.0571831 0.467637 -0.0636294 0.203058 0.174428C -0.0615211 0.412486 -0.0684544 0.804882 0.187591 1.05087L 1.33333 2.15162L 1.33333 5L 2.66667 5Z"/>
<path id="path3_fill" d="M 1.5 0L 0.5 0C 0.223867 0 0 0.223867 0 0.5C 0 0.776133 0.223867 1 0.5 1L 1.5 1C 1.77613 1 2 0.776133 2 0.5C 2 0.223867 1.77613 0 1.5 0Z"/>
<path id="path4_fill" d="M 1.85355 0.146449C 1.65832 -0.0488164 1.34172 -0.0488164 1.14645 0.146449L 0.14645 1.14644C -0.0488167 1.34171 -0.0488167 1.65827 0.14645 1.85354C 0.341683 2.0488 0.658317 2.04884 0.85355 1.85354L 1.85355 0.853545C 2.04882 0.658279 2.04882 0.341715 1.85355 0.146449Z"/>
<path id="path5_fill" d="M 1.85355 1.14645L 0.85355 0.14645C 0.658317 -0.0488167 0.341717 -0.0488167 0.14645 0.14645C -0.0488167 0.341717 -0.0488167 0.658283 0.14645 0.85355L 1.14645 1.85355C 1.34168 2.04882 1.65832 2.04882 1.85355 1.85355C 2.04882 1.65828 2.04882 1.34172 1.85355 1.14645Z"/>
<path id="path6_fill" d="M 1.85355 0.14645C 1.65828 -0.0488167 1.34168 -0.0488167 1.14645 0.14645L 0.14645 1.14645C -0.0488167 1.34172 -0.0488167 1.65828 0.14645 1.85355C 0.341683 2.04882 0.658317 2.04882 0.85355 1.85355L 1.85355 0.85355C 2.04882 0.658283 2.04882 0.341717 1.85355 0.14645Z"/>
</defs>
</svg>
