<svg width="14" height="21" viewBox="0 0 14 21" version="1.1" xmlns="http://www.w3.org/2000/svg" xmlns:xlink="http://www.w3.org/1999/xlink">
<title>idea-2</title>
<desc>Created using Figma</desc>
<g id="Canvas" transform="translate(1044 -713)">
<g id="idea-2">
<g id="Shape">
<use xlink:href="#path0_fill" transform="translate(-1044 713)" fill="#FFFFFF"/>
</g>
</g>
</g>
<defs>
<path id="path0_fill" fill-rule="evenodd" d="M 5.50708 0.14917C 2.78821 0.694702 0.623047 2.84753 0.119507 5.50616C -0.194458 7.16357 0.11499 8.85028 0.990601 10.2557C 2.02222 11.9114 2.54529 13.5645 2.54529 15.1691L 2.54529 16.4661C 2.54529 17.4214 3.05359 18.1679 3.81799 18.4336L 3.81799 19.1542C 3.81799 20.172 4.67444 21 5.72717 21L 8.27271 21C 9.32532 21 10.1818 20.172 10.1818 19.1542L 10.1818 18.4332C 10.9225 18.1792 11.4545 17.4953 11.4545 16.6932L 11.4545 15.163C 11.4545 13.5186 11.968 11.8594 12.9396 10.3651C 13.6234 9.31329 14 8.03552 14 6.76715C 14 2.50922 9.97095 -0.746582 5.50708 0.14917ZM 8.90906 19.1542C 8.90906 19.4935 8.62354 19.7695 8.27271 19.7695L 5.72717 19.7695C 5.37634 19.7695 5.09082 19.4935 5.09082 19.1542L 5.09082 18.539L 8.90906 18.539L 8.90906 19.1542ZM 9.54529 17.3085C 9.89624 17.3085 10.1818 17.0325 10.1818 16.6932L 10.1818 16.0369L 3.81799 16.0369L 3.81799 16.4661C 3.81799 16.9778 4.06775 17.3085 4.45435 17.3085L 9.54529 17.3085ZM 10.1888 14.8065L 3.8103 14.8065C 3.79309 14.3976 3.74695 13.9873 3.67212 13.5759L 10.3195 13.5759C 10.2487 13.9845 10.2048 14.3954 10.1888 14.8065ZM 10.6165 12.3455C 10.899 11.4357 11.3167 10.549 11.8619 9.71027C 12.4199 8.85211 12.7272 7.80682 12.7272 6.76715C 12.7272 3.72302 10.1881 1.23218 6.98584 1.23218C 4.05737 1.23218 1.83521 3.27881 1.37134 5.72784C 1.1134 7.08997 1.36536 8.47247 2.08081 9.62073C 2.64539 10.527 3.07336 11.4373 3.3634 12.3455L 6.36353 12.3455L 6.36353 9.51807L 5.26978 8.42548C 5.02539 8.18134 5.03198 7.79181 5.28455 7.55554C 5.53711 7.31921 5.94006 7.32562 6.18445 7.56976L 6.99988 8.3844L 7.81531 7.56976C 8.05969 7.32562 8.46252 7.31915 8.71509 7.55554C 8.96765 7.79181 8.97437 8.18134 8.72986 8.42548L 7.63623 9.51807L 7.63623 12.3455L 10.6165 12.3455Z"/>
</defs>
</svg>
