<?xml version="1.0" encoding="UTF-8"?>
<svg width="23px" height="22px" viewBox="0 0 23 22" version="1.1" xmlns="http://www.w3.org/2000/svg" xmlns:xlink="http://www.w3.org/1999/xlink">
    <defs></defs>
    <g id="Page-1" stroke="none" stroke-width="1" fill="none" fill-rule="evenodd">
        <g id="3.Страница-тестирование-чата" transform="translate(-1089.000000, -4623.000000)" fill-rule="nonzero" fill="#FFFFFF">
            <g id="Group-10" transform="translate(0.000000, 4550.000000)">
                <g id="linked-in-logo" transform="translate(1089.000000, 73.000000)">
                    <path d="M22.9686245,13.4879214 L22.9686245,21.9777118 L18.0437467,21.9777118 L18.0437467,14.0525721 C18.0437467,12.0600349 17.3336463,10.7058341 15.5516463,10.7058341 C14.1888472,10.7058341 13.3849345,11.6226769 13.0260655,12.5050306 C12.8968515,12.8227817 12.857607,13.2677773 12.857607,13.7070568 L12.857607,21.9767031 L7.93758079,21.9767031 C7.93758079,21.9767031 8.00362882,8.55920087 7.93758079,7.16959825 L12.8586157,7.16959825 L12.8586157,9.26834061 C12.8519389,9.28558515 12.8375764,9.29989956 12.8308515,9.3190655 L12.8586157,9.3190655 L12.8586157,9.26834061 C13.5160699,8.25965502 14.6807729,6.82216157 17.2963231,6.82216157 C20.5425721,6.82220961 22.9686245,8.93819651 22.9686245,13.4879214 Z M2.7858821,0.0302139738 C1.10249782,0.0302139738 0,1.13463319 0,2.59124454 C0,4.00861135 1.06997817,5.15035371 2.72271616,5.15035371 L2.75240175,5.15035371 C4.47310917,5.15035371 5.53924454,4.00861135 5.53924454,2.59124454 C5.50576419,1.13463319 4.47315721,0.0302139738 2.7858821,0.0302139738 Z M0.293829694,21.9776638 L5.21582533,21.9776638 L5.21582533,7.16868559 L0.293829694,7.16868559 L0.293829694,21.9776638 Z" id="LinkedIn_3_"></path>
                </g>
            </g>
        </g>
    </g>
</svg>