<?xml version="1.0" encoding="UTF-8"?>
<svg width="22px" height="36px" viewBox="0 0 22 36" version="1.1" xmlns="http://www.w3.org/2000/svg" xmlns:xlink="http://www.w3.org/1999/xlink">
    <defs></defs>
    <g id="Page-1" stroke="none" stroke-width="1" fill="none" fill-rule="evenodd">
        <g id="480px" transform="translate(-121.000000, -321.000000)" fill-rule="nonzero" fill="#CBCBCB">
            <g id="Footer" transform="translate(-7.000000, 238.000000)">
                <g id="Group-10" transform="translate(30.000000, 83.000000)">
                    <g id="Group-2" transform="translate(98.000000, 0.000000)">
                        <g id="odnoklassniki-logo">
                            <path d="M8.89793333,25.0645694 C6.15834253,24.7768565 3.6881954,24.0974514 1.57335862,22.4319213 C1.31094713,22.2247083 1.04002299,22.0249491 0.800558621,21.7935116 C-0.125098851,20.8983218 -0.218367816,19.8730648 0.514089655,18.8165023 C1.14069425,17.9123681 2.19256092,17.6704954 3.28588046,18.1896458 C3.49758621,18.2902708 3.69929885,18.4158657 3.89249885,18.5507778 C7.83385287,21.2777153 13.2482644,21.3529977 17.204423,18.6733912 C17.5963747,18.3707708 18.0153448,18.1240532 18.5009356,17.9980856 C19.4450989,17.7539769 20.3256023,18.1031829 20.8322897,18.9350162 C21.4111494,19.8849907 21.4037471,20.8122315 20.6905356,21.5497755 C19.5964759,22.6805023 18.2807172,23.4985463 16.8187632,24.0695 C15.4363839,24.6091481 13.9222437,24.8808356 12.4236483,25.0612153 C12.6497885,25.3090509 12.7563816,25.430919 12.8977655,25.5740301 C14.9326575,27.6327431 16.9764322,29.6828843 19.0046621,31.7479329 C19.6956667,32.4515625 19.8400115,33.3240185 19.4595333,34.1424352 C19.0435241,35.0368796 18.1123149,35.6253495 17.1992414,35.5623657 C16.6207517,35.5221157 16.1695816,35.2321667 15.7687471,34.8255671 C14.2331402,33.2696065 12.6686644,31.7423426 11.1641471,30.1569398 C10.7263011,29.6959282 10.5157057,29.7831366 10.1293057,30.1834005 C8.58444598,31.7848287 7.01441839,33.3616597 5.43513793,34.9295463 C4.7259977,35.6335486 3.88213563,35.7602616 3.05974023,35.3581343 C2.18552874,34.9314097 1.62924598,34.0328657 1.67217931,33.1298495 C1.70178851,32.5190185 2.00010115,32.0524167 2.41648046,31.6338912 C4.43027586,29.6090926 6.43851954,27.5790764 8.44750345,25.5509236 C8.58037471,25.4160116 8.70436322,25.2729005 8.89793333,25.0645694 Z" id="Shape"></path>
                            <path d="M10.5667816,18.0115023 C5.67941379,17.9947315 1.6718092,13.9149468 1.70030805,8.9858125 C1.72843678,4.0022662 5.73863218,-0.0137893519 10.6741149,2.03287907e-20 C15.6195908,0.0134166667 19.5890736,4.08723843 19.5642759,9.12258796 C19.539108,14.0416597 15.5037448,18.0286458 10.5667816,18.0115023 Z M15.008531,8.99773843 C15.0000184,6.55031481 13.0643172,4.60191667 10.6385839,4.59968056 C8.19249425,4.59707176 6.2393977,6.580875 6.25827356,9.05065972 C6.2764092,11.4887662 8.22876552,13.423375 10.6611609,13.4144306 C13.086154,13.4058588 15.0166736,11.4447894 15.008531,8.99773843 Z" id="Shape"></path>
                        </g>
                    </g>
                </g>
            </g>
        </g>
    </g>
</svg>