<svg width="40px" height="40px" viewBox="0 0 40 40" version="1.1" xmlns="http://www.w3.org/2000/svg" xmlns:xlink="http://www.w3.org/1999/xlink">
    <defs></defs>
    <g id="Page-1" stroke="none" stroke-width="1" fill="none" fill-rule="evenodd">
        <g id="Монополист-2" transform="translate(-748.000000, -3208.000000)" fill-rule="nonzero" fill="#000000">
            <g id="Group-21" transform="translate(0.000000, 2697.000000)">
                <g id="Group-17" transform="translate(358.000000, 92.000000)">
                    <g id="Group-3" transform="translate(390.000000, 419.000000)">
                        <g id="yandex">
                            <g id="searching-magnifying-glass-3">
                                <path d="M28.5234899,25.1006711 L26.6979866,25.1006711 L26.0135123,24.4161074 C28.2953915,21.9060403 29.664519,18.4832215 29.664519,14.8322148 C29.6644295,6.61744966 23.0469799,0 14.8322148,0 C6.61744966,0 0,6.61744966 0,14.8322148 C0,23.0469799 6.61744966,29.6644295 14.8322148,29.6644295 C18.4832215,29.6644295 21.9060403,28.295302 24.4161074,26.0134228 L25.1006711,26.6978971 L25.1006711,28.5234004 L36.5100671,39.9328859 L39.9328859,36.5100671 L28.5234899,25.1006711 Z M14.8322148,25.1006711 C9.12751678,25.1006711 4.56375839,20.5369128 4.56375839,14.8322148 C4.56375839,9.12751678 9.12751678,4.56375839 14.8322148,4.56375839 C20.5369128,4.56375839 25.1006711,9.12751678 25.1006711,14.8322148 C25.1006711,20.5369128 20.5369128,25.1006711 14.8322148,25.1006711 Z" id="Shape"></path>
                            </g>
                        </g>
                    </g>
                </g>
            </g>
        </g>
    </g>
</svg>