<svg width="19" height="19" viewBox="0 0 19 19" fill="none" xmlns="http://www.w3.org/2000/svg">
<path fill-rule="evenodd" clip-rule="evenodd" d="M0 0H19V19H4C1.79086 19 0 17.2091 0 15V0Z" fill="white" fill-opacity="0.9"/>
<path d="M5.88083 4.99687L9.81083 1.06687C10.055 0.822917 10.055 0.427083 9.81083 0.183125C9.56667 -0.0610417 9.17125 -0.0610417 8.92708 0.183125L4.99708 4.11312L1.06687 0.183125C0.822708 -0.0610417 0.427292 -0.0610417 0.183125 0.183125C-0.0610417 0.427083 -0.0610417 0.822917 0.183125 1.06687L4.11333 4.99687L0.183125 8.92688C-0.0610417 9.17083 -0.0610417 9.56667 0.183125 9.81063C0.305208 9.9325 0.465208 9.99354 0.625 9.99354C0.784792 9.99354 0.944792 9.9325 1.06687 9.81042L4.99708 5.88042L8.92708 9.81042C9.04917 9.9325 9.20917 9.99354 9.36896 9.99354C9.52875 9.99354 9.68875 9.9325 9.81083 9.81042C10.055 9.56646 10.055 9.17062 9.81083 8.92667L5.88083 4.99687Z" transform="translate(5 4.00024)" fill="#737373"/>
</svg>
