<?xml version="1.0" encoding="UTF-8"?>
<svg width="100px" height="92px" viewBox="0 0 100 92" version="1.1" xmlns="http://www.w3.org/2000/svg" xmlns:xlink="http://www.w3.org/1999/xlink">
    <defs></defs>
    <g id="Page-1" stroke="none" stroke-width="1" fill="none" fill-rule="evenodd">
        <g id="Монополист" transform="translate(-358.000000, -1777.000000)" fill-rule="nonzero" fill="#FF4E00">
            <g id="Group-16" transform="translate(358.000000, 1763.000000)">
                <g id="warning-2" transform="translate(0.000000, 14.000000)">
                    <path d="M49.9435318,64.3494867 C47.150924,64.3494867 44.8100616,66.6903491 44.8100616,69.4829569 C44.8100616,72.2755647 47.150924,74.6164271 49.9435318,74.6164271 C52.6334702,74.6164271 55.0770021,72.2755647 54.9537988,69.6061602 C55.0770021,66.6698152 52.7566735,64.3494867 49.9435318,64.3494867 Z" id="Shape"></path>
                    <path d="M97.4589322,82.5425051 C100.682752,76.9778234 100.703285,70.3453799 97.5,64.801232 L65.3439425,9.11334702 C62.161191,3.50759754 56.4117043,0.18110883 49.9640657,0.18110883 C43.5164271,0.18110883 37.7669405,3.52813142 34.5841889,9.09281314 L2.38706366,64.8422998 C-0.816221766,70.4480493 -0.795687885,77.1215606 2.4486653,82.6862423 C5.65195072,88.1893224 11.3809035,91.4952772 17.7874743,91.4952772 L82.0174538,91.4952772 C88.4445585,91.4952772 94.2145791,88.1482546 97.4589322,82.5425051 Z M90.4774127,78.5178645 C88.6909651,81.5979466 85.5287474,83.425462 81.9969199,83.425462 L17.7669405,83.425462 C14.2761807,83.425462 11.1344969,81.6390144 9.38911704,78.6205339 C7.62320329,75.5609856 7.6026694,71.9059548 9.36858316,68.8258727 L41.5657084,13.0969199 C43.3110883,10.0373717 46.4322382,8.23039014 49.9640657,8.23039014 C53.4753593,8.23039014 56.6170431,10.0579055 58.362423,13.1174538 L90.5390144,68.8464066 C92.2638604,71.8443532 92.2433265,75.4583162 90.4774127,78.5178645 Z" id="Shape"></path>
                    <path d="M48.6704312,28.3125257 C46.2268994,29.0106776 44.7073922,31.2283368 44.7073922,33.9182752 C44.8305955,35.5404517 44.9332649,37.1831622 45.0564682,38.8053388 C45.4055441,44.986037 45.7546201,51.0435318 46.1036961,57.22423 C46.2268994,59.3186858 47.849076,60.838193 49.9435318,60.838193 C52.0379877,60.838193 53.6806982,59.2160164 53.7833676,57.1010267 C53.7833676,55.8279261 53.7833676,54.6574949 53.9065708,53.3638604 C54.1324435,49.4008214 54.3788501,45.4377823 54.6047228,41.4747433 C54.7279261,38.9080082 54.9537988,36.3412731 55.0770021,33.774538 C55.0770021,32.8505133 54.9537988,32.0291581 54.6047228,31.2078029 C53.5574949,28.9080082 51.113963,27.737577 48.6704312,28.3125257 Z" id="Shape"></path>
                </g>
            </g>
        </g>
    </g>
</svg>